<svg width="583" height="1080" viewBox="0 0 583 1080" fill="none" xmlns="http://www.w3.org/2000/svg">
<rect width="583" height="1080" rx="17" fill="#122234"/>
<rect x="58" y="624" width="139" height="59" rx="5" fill="#0066FF"/>
<rect x="217" y="625" width="139" height="59" rx="5" fill="#2DD881"/>
<path d="M99.001 661.176C97.4482 661.176 96.0566 660.818 94.8262 660.104L95.4062 658.214C95.957 658.519 96.5547 658.765 97.1992 658.952C97.8496 659.14 98.4824 659.233 99.0977 659.233C99.8535 659.233 100.425 659.072 100.812 658.75C101.198 658.422 101.392 657.953 101.392 657.344C101.392 656.535 100.853 655.976 99.7744 655.665C99.6982 655.642 99.4844 655.58 99.1328 655.48C98.7812 655.375 98.4502 655.275 98.1396 655.182C97.835 655.082 97.6152 655.006 97.4805 654.953C95.752 654.344 94.8877 653.207 94.8877 651.543C94.8877 650.377 95.3008 649.478 96.127 648.845C96.959 648.212 98.0605 647.896 99.4316 647.896C100.984 647.896 102.323 648.215 103.448 648.854L102.728 650.594C101.579 650.078 100.513 649.82 99.5283 649.82C98.8193 649.82 98.2832 649.946 97.9199 650.198C97.5625 650.444 97.3721 650.857 97.3486 651.438C97.3486 652.152 97.7031 652.618 98.4121 652.835C98.5527 652.888 98.8984 653.002 99.4492 653.178C100 653.354 100.357 653.468 100.521 653.521C101.699 653.907 102.54 654.388 103.044 654.962C103.554 655.536 103.809 656.336 103.809 657.361C103.809 658.586 103.375 659.529 102.508 660.191C101.641 660.848 100.472 661.176 99.001 661.176ZM105.909 661V648.124H108.291V661H105.909ZM116.887 661.185C114.924 661.185 113.389 660.593 112.281 659.409C111.18 658.226 110.629 656.605 110.629 654.549C110.629 653.242 110.887 652.094 111.402 651.104C111.918 650.107 112.677 649.331 113.679 648.774C114.681 648.218 115.864 647.939 117.229 647.939C118.794 647.939 120.136 648.276 121.255 648.95L120.481 650.726C119.415 650.151 118.346 649.864 117.273 649.864C115.973 649.864 114.95 650.286 114.206 651.13C113.462 651.974 113.09 653.122 113.09 654.575C113.09 656.017 113.421 657.156 114.083 657.994C114.745 658.832 115.715 659.251 116.992 659.251C117.812 659.251 118.557 659.122 119.225 658.864V655.876H116.526L116.544 654.004H121.466V660.218C120.669 660.546 119.913 660.789 119.198 660.947C118.489 661.105 117.719 661.185 116.887 661.185ZM124.023 661V648.124H126.555C127.012 648.839 127.94 650.28 129.341 652.448C130.741 654.616 131.594 655.935 131.898 656.403C131.986 656.538 132.136 656.767 132.347 657.089C132.563 657.405 132.716 657.631 132.804 657.766C132.763 655.756 132.742 654.713 132.742 654.637V648.124H134.913V661H132.347L126.537 651.947L126.115 651.253C126.162 652.8 126.186 653.887 126.186 654.514V661H124.023ZM142.507 661V648.124H144.889V661H142.507ZM147.736 661V648.124H150.268C150.725 648.839 151.653 650.28 153.054 652.448C154.454 654.616 155.307 655.935 155.611 656.403C155.699 656.538 155.849 656.767 156.06 657.089C156.276 657.405 156.429 657.631 156.517 657.766C156.476 655.756 156.455 654.713 156.455 654.637V648.124H158.626V661H156.06L150.25 651.947L149.828 651.253C149.875 652.8 149.898 653.887 149.898 654.514V661H147.736Z" fill="white"/>
<path d="M256.779 660.093H258.484C259.955 660.093 261.074 659.709 261.842 658.941C262.609 658.168 262.993 657.043 262.993 655.566C262.993 653.984 262.598 652.836 261.807 652.121C261.016 651.4 259.823 651.04 258.229 651.04H256.779V660.093ZM254.397 662V649.124H258.124C259.249 649.124 260.257 649.253 261.147 649.511C262.038 649.769 262.803 650.158 263.441 650.68C264.086 651.195 264.578 651.863 264.918 652.684C265.264 653.498 265.437 654.441 265.437 655.514C265.437 657.594 264.81 659.196 263.556 660.321C262.302 661.44 260.564 662 258.344 662H254.397ZM270.631 659.021C271.27 659.835 272.213 660.242 273.461 660.242C274.709 660.242 275.649 659.838 276.282 659.029C276.921 658.215 277.24 657.066 277.24 655.584C277.24 654.084 276.921 652.921 276.282 652.095C275.649 651.269 274.712 650.855 273.47 650.855C272.222 650.855 271.275 651.271 270.631 652.104C269.992 652.93 269.673 654.09 269.673 655.584C269.673 657.061 269.992 658.206 270.631 659.021ZM273.452 662.185C271.513 662.185 269.98 661.599 268.855 660.427C267.736 659.249 267.177 657.626 267.177 655.558C267.177 653.478 267.739 651.854 268.864 650.688C269.989 649.522 271.521 648.939 273.461 648.939C275.4 648.939 276.93 649.525 278.049 650.697C279.168 651.863 279.728 653.486 279.728 655.566C279.728 657.623 279.165 659.24 278.04 660.418C276.915 661.596 275.386 662.185 273.452 662.185ZM281.986 662V649.124H284.518C284.975 649.839 285.903 651.28 287.304 653.448C288.704 655.616 289.557 656.935 289.861 657.403C289.949 657.538 290.099 657.767 290.31 658.089C290.526 658.405 290.679 658.631 290.767 658.766C290.726 656.756 290.705 655.713 290.705 655.637V649.124H292.876V662H290.31L284.5 652.947L284.078 652.253C284.125 653.8 284.148 654.887 284.148 655.514V662H281.986ZM300.672 662.185C298.984 662.185 297.704 661.766 296.831 660.928C295.958 660.084 295.521 658.897 295.521 657.368V649.124H297.912V657.166C297.912 658.238 298.129 659.021 298.562 659.513C299.002 660.005 299.72 660.251 300.716 660.251C301.694 660.251 302.403 660.005 302.843 659.513C303.282 659.015 303.502 658.229 303.502 657.157V649.124H305.884V657.386C305.884 658.903 305.438 660.084 304.548 660.928C303.657 661.766 302.365 662.185 300.672 662.185ZM311.034 662V651.031H307.281V649.124H317.16V651.031H313.425V662H311.034Z" fill="white"/>
<rect x="58" y="427" width="465" height="58" rx="5" fill="white"/>
<rect x="58" y="532" width="465" height="58" rx="5" fill="white"/>
<path d="M94.5293 462V449.001H101.982L101.921 450.346H96.0498V454.6H101.631V455.927H96.0498V460.655H102.114L102.044 462H94.5293ZM104.312 462V452.358H105.542L105.727 453.738C106.107 453.264 106.582 452.883 107.15 452.596C107.725 452.303 108.343 452.156 109.005 452.156C110.118 452.156 110.941 452.47 111.475 453.097C112.008 453.718 112.274 454.676 112.274 455.971V462H110.807C110.807 458.133 110.804 456.062 110.798 455.786C110.774 454.966 110.607 454.365 110.297 453.984C109.992 453.604 109.479 453.413 108.759 453.413C108.003 453.413 107.373 453.595 106.869 453.958C106.365 454.321 106.037 454.793 105.885 455.373C105.826 455.766 105.797 456.217 105.797 456.727V462H104.312ZM117.794 462.176C116.845 462.176 116.171 461.944 115.772 461.481C115.374 461.019 115.163 460.271 115.14 459.24V453.448H113.707L113.769 452.481L115.131 452.358L115.632 450.152L116.599 450.117V452.358H119.279V453.448H116.599V458.977C116.599 459.709 116.71 460.225 116.933 460.523C117.155 460.822 117.536 460.972 118.075 460.972C118.269 460.972 118.688 460.925 119.332 460.831L119.394 461.991C118.696 462.114 118.163 462.176 117.794 462.176ZM126.407 454.143C125.979 453.627 125.391 453.369 124.641 453.369C123.891 453.369 123.278 453.636 122.804 454.169C122.329 454.696 122.051 455.42 121.969 456.34H127.058C127.058 455.385 126.841 454.652 126.407 454.143ZM124.931 462.202C123.53 462.202 122.426 461.757 121.617 460.866C120.814 459.976 120.413 458.757 120.413 457.21C120.413 455.716 120.803 454.506 121.582 453.58C122.361 452.648 123.387 452.174 124.658 452.156C125.854 452.156 126.8 452.566 127.497 453.387C128.2 454.201 128.552 455.291 128.552 456.656C128.552 456.727 128.549 456.855 128.543 457.043C128.543 457.23 128.543 457.365 128.543 457.447H121.925C121.942 458.543 122.224 459.398 122.769 460.014C123.319 460.623 124.058 460.928 124.983 460.928C126.003 460.928 127.025 460.658 128.051 460.119L128.279 461.306C127.301 461.903 126.185 462.202 124.931 462.202ZM134.915 452.271C135.179 452.271 135.419 452.288 135.636 452.323L135.583 453.677C135.313 453.63 135.079 453.606 134.88 453.606C134.06 453.606 133.392 453.894 132.876 454.468C132.366 455.036 132.111 455.742 132.111 456.586V462H130.644C130.638 456.082 130.635 452.868 130.635 452.358H131.856L131.997 454.09C132.331 453.545 132.756 453.105 133.271 452.771C133.787 452.438 134.335 452.271 134.915 452.271ZM140.417 452.358H141.973L145.014 460.383L147.721 452.358H149.276C146.675 459.519 145.33 463.21 145.242 463.433C144.838 464.446 144.349 465.188 143.774 465.656C143.2 466.131 142.444 466.368 141.507 466.368C141.226 466.368 140.93 466.345 140.619 466.298L140.531 465.05C140.859 465.073 141.105 465.085 141.27 465.085C141.932 465.085 142.433 464.962 142.772 464.716C143.118 464.476 143.426 464.021 143.695 463.354C143.936 462.738 144.114 462.264 144.231 461.93L140.417 452.358ZM151.526 457.201C151.526 458.344 151.778 459.261 152.282 459.952C152.792 460.638 153.533 460.98 154.506 460.98C155.467 460.98 156.19 460.638 156.677 459.952C157.169 459.267 157.415 458.344 157.415 457.184C157.415 456.006 157.172 455.08 156.686 454.406C156.205 453.727 155.47 453.387 154.479 453.387C153.519 453.387 152.786 453.732 152.282 454.424C151.778 455.115 151.526 456.041 151.526 457.201ZM158.936 457.175C158.936 458.669 158.537 459.882 157.74 460.813C156.943 461.739 155.842 462.202 154.436 462.202C153.082 462.202 152.004 461.733 151.201 460.796C150.404 459.858 150.006 458.654 150.006 457.184C150.006 455.684 150.407 454.471 151.21 453.545C152.013 452.619 153.114 452.156 154.515 452.156C155.892 452.156 156.973 452.622 157.758 453.554C158.543 454.479 158.936 455.687 158.936 457.175ZM160.685 458.783V452.358H162.161V458.801C162.161 459.223 162.22 459.58 162.337 459.873C162.46 460.166 162.633 460.395 162.855 460.559C163.084 460.717 163.339 460.831 163.62 460.901C163.907 460.972 164.235 461.007 164.604 461.007C165.366 461.007 165.958 460.84 166.38 460.506C166.808 460.172 167.021 459.604 167.021 458.801V452.358H168.498V458.783C168.498 459.275 168.428 459.718 168.287 460.11C168.146 460.503 167.956 460.831 167.716 461.095C167.481 461.353 167.197 461.566 166.863 461.736C166.529 461.906 166.175 462.029 165.8 462.105C165.431 462.182 165.032 462.22 164.604 462.22C164.183 462.22 163.784 462.182 163.409 462.105C163.034 462.029 162.677 461.906 162.337 461.736C162.003 461.561 161.713 461.344 161.467 461.086C161.227 460.822 161.036 460.494 160.896 460.102C160.755 459.709 160.685 459.27 160.685 458.783ZM175.011 452.271C175.274 452.271 175.515 452.288 175.731 452.323L175.679 453.677C175.409 453.63 175.175 453.606 174.976 453.606C174.155 453.606 173.487 453.894 172.972 454.468C172.462 455.036 172.207 455.742 172.207 456.586V462H170.739C170.733 456.082 170.73 452.868 170.73 452.358H171.952L172.093 454.09C172.427 453.545 172.852 453.105 173.367 452.771C173.883 452.438 174.431 452.271 175.011 452.271ZM187.298 454.143C186.87 453.627 186.281 453.369 185.531 453.369C184.781 453.369 184.169 453.636 183.694 454.169C183.22 454.696 182.941 455.42 182.859 456.34H187.948C187.948 455.385 187.731 454.652 187.298 454.143ZM185.821 462.202C184.421 462.202 183.316 461.757 182.508 460.866C181.705 459.976 181.304 458.757 181.304 457.21C181.304 455.716 181.693 454.506 182.473 453.58C183.252 452.648 184.277 452.174 185.549 452.156C186.744 452.156 187.69 452.566 188.388 453.387C189.091 454.201 189.442 455.291 189.442 456.656C189.442 456.727 189.439 456.855 189.434 457.043C189.434 457.23 189.434 457.365 189.434 457.447H182.815C182.833 458.543 183.114 459.398 183.659 460.014C184.21 460.623 184.948 460.928 185.874 460.928C186.894 460.928 187.916 460.658 188.941 460.119L189.17 461.306C188.191 461.903 187.075 462.202 185.821 462.202ZM203.725 462V456.981C203.725 456.513 203.713 456.12 203.689 455.804C203.672 455.487 203.625 455.165 203.549 454.837C203.479 454.509 203.376 454.251 203.241 454.063C203.112 453.87 202.931 453.715 202.696 453.598C202.462 453.475 202.181 453.413 201.853 453.413C201.208 453.413 200.657 453.586 200.2 453.932C199.749 454.277 199.427 454.764 199.233 455.391C199.181 455.812 199.154 456.264 199.154 456.744V462H197.687V456.823C197.687 456.39 197.672 456.015 197.643 455.698C197.613 455.376 197.558 455.065 197.476 454.767C197.394 454.462 197.282 454.216 197.142 454.028C197.007 453.841 196.825 453.691 196.597 453.58C196.368 453.469 196.096 453.413 195.779 453.413C195.076 453.413 194.484 453.592 194.004 453.949C193.529 454.307 193.21 454.781 193.046 455.373C192.993 455.824 192.967 456.313 192.967 456.841V462H191.499C191.487 455.971 191.481 452.757 191.481 452.358H192.712L192.896 453.738C193.189 453.293 193.605 452.918 194.145 452.613C194.684 452.309 195.296 452.156 195.981 452.156C196.339 452.156 196.667 452.194 196.966 452.271C197.271 452.341 197.522 452.432 197.722 452.543C197.927 452.654 198.108 452.789 198.267 452.947C198.425 453.1 198.548 453.252 198.636 453.404C198.724 453.551 198.797 453.706 198.855 453.87C199.559 452.728 200.634 452.156 202.081 452.156C203.153 452.156 203.938 452.464 204.437 453.079C204.94 453.688 205.192 454.594 205.192 455.795V462H203.725ZM209.859 461.016C210.557 461.016 211.169 460.825 211.696 460.444C212.229 460.058 212.572 459.539 212.725 458.889V457.263C212.695 457.263 212.517 457.277 212.188 457.307C211.866 457.336 211.655 457.354 211.556 457.359C210.284 457.471 209.396 457.679 208.893 457.983C208.395 458.288 208.146 458.777 208.146 459.451C208.146 459.967 208.298 460.356 208.603 460.62C208.907 460.884 209.326 461.016 209.859 461.016ZM213.05 462C212.962 461.625 212.877 461.221 212.795 460.787C212.262 461.32 211.761 461.689 211.292 461.895C210.823 462.1 210.272 462.202 209.64 462.202C208.737 462.202 208.011 461.968 207.46 461.499C206.915 461.024 206.643 460.345 206.643 459.46C206.643 458.476 207.015 457.746 207.759 457.271C208.509 456.797 209.587 456.501 210.993 456.384C211.187 456.366 211.477 456.343 211.863 456.313C212.256 456.278 212.549 456.252 212.742 456.234V455.382C212.742 454.702 212.584 454.198 212.268 453.87C211.951 453.542 211.453 453.378 210.773 453.378C209.824 453.378 208.866 453.612 207.899 454.081C207.87 454.011 207.794 453.809 207.671 453.475C207.548 453.135 207.483 452.959 207.478 452.947C207.905 452.707 208.412 452.517 208.998 452.376C209.59 452.229 210.19 452.156 210.8 452.156C212.001 452.156 212.865 452.42 213.393 452.947C213.926 453.469 214.192 454.359 214.192 455.619V462H213.05ZM218.455 452.358V462H216.979V452.358H218.455ZM218.455 448.852V450.592H216.979V448.852H218.455ZM223.816 462.176C222.879 462.176 222.214 461.924 221.821 461.42C221.435 460.916 221.241 460.04 221.241 458.792V448.614L222.7 448.526V458.212C222.7 458.61 222.703 458.93 222.709 459.17C222.721 459.41 222.744 459.647 222.779 459.882C222.814 460.11 222.861 460.283 222.92 460.4C222.979 460.518 223.063 460.626 223.175 460.726C223.286 460.819 223.418 460.884 223.57 460.919C223.729 460.948 223.922 460.963 224.15 460.963C224.338 460.963 224.707 460.928 225.258 460.857L225.337 462.026C224.733 462.126 224.227 462.176 223.816 462.176ZM233.52 461.016C234.217 461.016 234.829 460.825 235.356 460.444C235.89 460.058 236.232 459.539 236.385 458.889V457.263C236.355 457.263 236.177 457.277 235.849 457.307C235.526 457.336 235.315 457.354 235.216 457.359C233.944 457.471 233.057 457.679 232.553 457.983C232.055 458.288 231.806 458.777 231.806 459.451C231.806 459.967 231.958 460.356 232.263 460.62C232.567 460.884 232.986 461.016 233.52 461.016ZM236.71 462C236.622 461.625 236.537 461.221 236.455 460.787C235.922 461.32 235.421 461.689 234.952 461.895C234.483 462.1 233.933 462.202 233.3 462.202C232.397 462.202 231.671 461.968 231.12 461.499C230.575 461.024 230.303 460.345 230.303 459.46C230.303 458.476 230.675 457.746 231.419 457.271C232.169 456.797 233.247 456.501 234.653 456.384C234.847 456.366 235.137 456.343 235.523 456.313C235.916 456.278 236.209 456.252 236.402 456.234V455.382C236.402 454.702 236.244 454.198 235.928 453.87C235.611 453.542 235.113 453.378 234.434 453.378C233.484 453.378 232.526 453.612 231.56 454.081C231.53 454.011 231.454 453.809 231.331 453.475C231.208 453.135 231.144 452.959 231.138 452.947C231.565 452.707 232.072 452.517 232.658 452.376C233.25 452.229 233.851 452.156 234.46 452.156C235.661 452.156 236.525 452.42 237.053 452.947C237.586 453.469 237.853 454.359 237.853 455.619V462H236.71ZM244.146 460.937C245.112 460.937 245.83 460.626 246.299 460.005C246.773 459.384 247.011 458.496 247.011 457.342C247.011 456.041 246.782 455.062 246.325 454.406C245.874 453.744 245.142 453.413 244.128 453.413C243.677 453.413 243.278 453.51 242.933 453.703C242.587 453.896 242.309 454.166 242.098 454.512C241.887 454.857 241.726 455.256 241.614 455.707C241.509 456.152 241.456 456.642 241.456 457.175C241.456 457.925 241.547 458.575 241.729 459.126C241.916 459.677 242.215 460.116 242.625 460.444C243.035 460.772 243.542 460.937 244.146 460.937ZM247.037 460.603C246.721 461.089 246.299 461.476 245.771 461.763C245.244 462.05 244.655 462.193 244.005 462.193C242.733 462.193 241.737 461.742 241.017 460.84C240.296 459.932 239.936 458.698 239.936 457.14C239.936 455.651 240.302 454.45 241.034 453.536C241.767 452.616 242.748 452.156 243.979 452.156C244.617 452.156 245.218 452.297 245.78 452.578C246.349 452.854 246.773 453.226 247.055 453.694L247.028 452.859V448.614L248.479 448.526V462H247.23L247.037 460.603ZM254.64 460.937C255.606 460.937 256.324 460.626 256.793 460.005C257.268 459.384 257.505 458.496 257.505 457.342C257.505 456.041 257.276 455.062 256.819 454.406C256.368 453.744 255.636 453.413 254.622 453.413C254.171 453.413 253.772 453.51 253.427 453.703C253.081 453.896 252.803 454.166 252.592 454.512C252.381 454.857 252.22 455.256 252.108 455.707C252.003 456.152 251.95 456.642 251.95 457.175C251.95 457.925 252.041 458.575 252.223 459.126C252.41 459.677 252.709 460.116 253.119 460.444C253.529 460.772 254.036 460.937 254.64 460.937ZM257.531 460.603C257.215 461.089 256.793 461.476 256.266 461.763C255.738 462.05 255.149 462.193 254.499 462.193C253.228 462.193 252.231 461.742 251.511 460.84C250.79 459.932 250.43 458.698 250.43 457.14C250.43 455.651 250.796 454.45 251.528 453.536C252.261 452.616 253.242 452.156 254.473 452.156C255.111 452.156 255.712 452.297 256.274 452.578C256.843 452.854 257.268 453.226 257.549 453.694L257.522 452.859V448.614L258.973 448.526V462H257.725L257.531 460.603ZM265.854 452.271C266.118 452.271 266.358 452.288 266.575 452.323L266.522 453.677C266.253 453.63 266.019 453.606 265.819 453.606C264.999 453.606 264.331 453.894 263.815 454.468C263.306 455.036 263.051 455.742 263.051 456.586V462H261.583C261.577 456.082 261.574 452.868 261.574 452.358H262.796L262.937 454.09C263.271 453.545 263.695 453.105 264.211 452.771C264.727 452.438 265.274 452.271 265.854 452.271ZM273.466 454.143C273.038 453.627 272.449 453.369 271.699 453.369C270.949 453.369 270.337 453.636 269.862 454.169C269.388 454.696 269.109 455.42 269.027 456.34H274.116C274.116 455.385 273.899 454.652 273.466 454.143ZM271.989 462.202C270.589 462.202 269.484 461.757 268.676 460.866C267.873 459.976 267.472 458.757 267.472 457.21C267.472 455.716 267.861 454.506 268.641 453.58C269.42 452.648 270.445 452.174 271.717 452.156C272.912 452.156 273.858 452.566 274.556 453.387C275.259 454.201 275.61 455.291 275.61 456.656C275.61 456.727 275.607 456.855 275.602 457.043C275.602 457.23 275.602 457.365 275.602 457.447H268.983C269.001 458.543 269.282 459.398 269.827 460.014C270.378 460.623 271.116 460.928 272.042 460.928C273.062 460.928 274.084 460.658 275.109 460.119L275.338 461.306C274.359 461.903 273.243 462.202 271.989 462.202ZM280.523 462.202C279.867 462.202 279.261 462.132 278.704 461.991C278.153 461.851 277.705 461.669 277.359 461.446L277.544 460.207C278.522 460.729 279.483 460.989 280.427 460.989C281.856 460.989 282.592 460.485 282.633 459.478C282.633 459.05 282.48 458.713 282.176 458.467C281.871 458.221 281.273 457.945 280.383 457.641L279.653 457.386C278.81 457.104 278.206 456.756 277.843 456.34C277.485 455.924 277.304 455.405 277.298 454.784C277.298 454.028 277.6 453.401 278.203 452.903C278.812 452.405 279.645 452.156 280.699 452.156C281.789 452.156 282.782 452.367 283.679 452.789L283.248 453.914C282.34 453.539 281.49 453.352 280.699 453.352C280.084 453.352 279.601 453.475 279.249 453.721C278.903 453.961 278.73 454.301 278.73 454.74C278.73 455.115 278.856 455.402 279.108 455.602C279.36 455.801 279.864 456.029 280.62 456.287C280.813 456.357 281.057 456.439 281.35 456.533C282.322 456.85 283.011 457.225 283.415 457.658C283.819 458.086 284.021 458.666 284.021 459.398C284.01 460.289 283.69 460.98 283.063 461.473C282.437 461.959 281.59 462.202 280.523 462.202ZM288.908 462.202C288.252 462.202 287.646 462.132 287.089 461.991C286.538 461.851 286.09 461.669 285.744 461.446L285.929 460.207C286.907 460.729 287.868 460.989 288.812 460.989C290.241 460.989 290.977 460.485 291.018 459.478C291.018 459.05 290.865 458.713 290.561 458.467C290.256 458.221 289.658 457.945 288.768 457.641L288.038 457.386C287.194 457.104 286.591 456.756 286.228 456.34C285.87 455.924 285.688 455.405 285.683 454.784C285.683 454.028 285.984 453.401 286.588 452.903C287.197 452.405 288.029 452.156 289.084 452.156C290.174 452.156 291.167 452.367 292.063 452.789L291.633 453.914C290.725 453.539 289.875 453.352 289.084 453.352C288.469 453.352 287.985 453.475 287.634 453.721C287.288 453.961 287.115 454.301 287.115 454.74C287.115 455.115 287.241 455.402 287.493 455.602C287.745 455.801 288.249 456.029 289.005 456.287C289.198 456.357 289.441 456.439 289.734 456.533C290.707 456.85 291.396 457.225 291.8 457.658C292.204 458.086 292.406 458.666 292.406 459.398C292.395 460.289 292.075 460.98 291.448 461.473C290.821 461.959 289.975 462.202 288.908 462.202Z" fill="#BCBCBC"/>
<path d="M94.5293 566V553.001H101.982L101.921 554.346H96.0498V558.6H101.631V559.927H96.0498V564.655H102.114L102.044 566H94.5293ZM104.312 566V556.358H105.542L105.727 557.738C106.107 557.264 106.582 556.883 107.15 556.596C107.725 556.303 108.343 556.156 109.005 556.156C110.118 556.156 110.941 556.47 111.475 557.097C112.008 557.718 112.274 558.676 112.274 559.971V566H110.807C110.807 562.133 110.804 560.062 110.798 559.786C110.774 558.966 110.607 558.365 110.297 557.984C109.992 557.604 109.479 557.413 108.759 557.413C108.003 557.413 107.373 557.595 106.869 557.958C106.365 558.321 106.037 558.793 105.885 559.373C105.826 559.766 105.797 560.217 105.797 560.727V566H104.312ZM117.794 566.176C116.845 566.176 116.171 565.944 115.772 565.481C115.374 565.019 115.163 564.271 115.14 563.24V557.448H113.707L113.769 556.481L115.131 556.358L115.632 554.152L116.599 554.117V556.358H119.279V557.448H116.599V562.977C116.599 563.709 116.71 564.225 116.933 564.523C117.155 564.822 117.536 564.972 118.075 564.972C118.269 564.972 118.688 564.925 119.332 564.831L119.394 565.991C118.696 566.114 118.163 566.176 117.794 566.176ZM126.407 558.143C125.979 557.627 125.391 557.369 124.641 557.369C123.891 557.369 123.278 557.636 122.804 558.169C122.329 558.696 122.051 559.42 121.969 560.34H127.058C127.058 559.385 126.841 558.652 126.407 558.143ZM124.931 566.202C123.53 566.202 122.426 565.757 121.617 564.866C120.814 563.976 120.413 562.757 120.413 561.21C120.413 559.716 120.803 558.506 121.582 557.58C122.361 556.648 123.387 556.174 124.658 556.156C125.854 556.156 126.8 556.566 127.497 557.387C128.2 558.201 128.552 559.291 128.552 560.656C128.552 560.727 128.549 560.855 128.543 561.043C128.543 561.23 128.543 561.365 128.543 561.447H121.925C121.942 562.543 122.224 563.398 122.769 564.014C123.319 564.623 124.058 564.928 124.983 564.928C126.003 564.928 127.025 564.658 128.051 564.119L128.279 565.306C127.301 565.903 126.185 566.202 124.931 566.202ZM134.915 556.271C135.179 556.271 135.419 556.288 135.636 556.323L135.583 557.677C135.313 557.63 135.079 557.606 134.88 557.606C134.06 557.606 133.392 557.894 132.876 558.468C132.366 559.036 132.111 559.742 132.111 560.586V566H130.644C130.638 560.082 130.635 556.868 130.635 556.358H131.856L131.997 558.09C132.331 557.545 132.756 557.105 133.271 556.771C133.787 556.438 134.335 556.271 134.915 556.271ZM140.417 556.358H141.973L145.014 564.383L147.721 556.358H149.276C146.675 563.519 145.33 567.21 145.242 567.433C144.838 568.446 144.349 569.188 143.774 569.656C143.2 570.131 142.444 570.368 141.507 570.368C141.226 570.368 140.93 570.345 140.619 570.298L140.531 569.05C140.859 569.073 141.105 569.085 141.27 569.085C141.932 569.085 142.433 568.962 142.772 568.716C143.118 568.476 143.426 568.021 143.695 567.354C143.936 566.738 144.114 566.264 144.231 565.93L140.417 556.358ZM151.526 561.201C151.526 562.344 151.778 563.261 152.282 563.952C152.792 564.638 153.533 564.98 154.506 564.98C155.467 564.98 156.19 564.638 156.677 563.952C157.169 563.267 157.415 562.344 157.415 561.184C157.415 560.006 157.172 559.08 156.686 558.406C156.205 557.727 155.47 557.387 154.479 557.387C153.519 557.387 152.786 557.732 152.282 558.424C151.778 559.115 151.526 560.041 151.526 561.201ZM158.936 561.175C158.936 562.669 158.537 563.882 157.74 564.813C156.943 565.739 155.842 566.202 154.436 566.202C153.082 566.202 152.004 565.733 151.201 564.796C150.404 563.858 150.006 562.654 150.006 561.184C150.006 559.684 150.407 558.471 151.21 557.545C152.013 556.619 153.114 556.156 154.515 556.156C155.892 556.156 156.973 556.622 157.758 557.554C158.543 558.479 158.936 559.687 158.936 561.175ZM160.685 562.783V556.358H162.161V562.801C162.161 563.223 162.22 563.58 162.337 563.873C162.46 564.166 162.633 564.395 162.855 564.559C163.084 564.717 163.339 564.831 163.62 564.901C163.907 564.972 164.235 565.007 164.604 565.007C165.366 565.007 165.958 564.84 166.38 564.506C166.808 564.172 167.021 563.604 167.021 562.801V556.358H168.498V562.783C168.498 563.275 168.428 563.718 168.287 564.11C168.146 564.503 167.956 564.831 167.716 565.095C167.481 565.353 167.197 565.566 166.863 565.736C166.529 565.906 166.175 566.029 165.8 566.105C165.431 566.182 165.032 566.22 164.604 566.22C164.183 566.22 163.784 566.182 163.409 566.105C163.034 566.029 162.677 565.906 162.337 565.736C162.003 565.561 161.713 565.344 161.467 565.086C161.227 564.822 161.036 564.494 160.896 564.102C160.755 563.709 160.685 563.27 160.685 562.783ZM175.011 556.271C175.274 556.271 175.515 556.288 175.731 556.323L175.679 557.677C175.409 557.63 175.175 557.606 174.976 557.606C174.155 557.606 173.487 557.894 172.972 558.468C172.462 559.036 172.207 559.742 172.207 560.586V566H170.739C170.733 560.082 170.73 556.868 170.73 556.358H171.952L172.093 558.09C172.427 557.545 172.852 557.105 173.367 556.771C173.883 556.438 174.431 556.271 175.011 556.271ZM181.743 570.184V556.358H183.035L183.176 557.668C184.02 556.66 185.033 556.156 186.217 556.156C187.096 556.156 187.84 556.376 188.449 556.815C189.059 557.255 189.507 557.85 189.794 558.6C190.087 559.35 190.233 560.226 190.233 561.228C190.233 562.188 190.075 563.044 189.759 563.794C189.442 564.538 188.977 565.127 188.361 565.561C187.752 565.988 187.037 566.202 186.217 566.202C185.596 566.202 185.013 566.064 184.468 565.789C183.923 565.508 183.486 565.139 183.158 564.682C183.193 565.314 183.211 565.93 183.211 566.527V570.087L181.743 570.184ZM186.015 564.963C186.46 564.963 186.858 564.863 187.21 564.664C187.562 564.459 187.846 564.181 188.062 563.829C188.279 563.478 188.443 563.079 188.555 562.634C188.666 562.183 188.722 561.696 188.722 561.175C188.722 560.073 188.49 559.171 188.027 558.468C187.564 557.759 186.888 557.404 185.997 557.404C184.134 557.404 183.202 558.608 183.202 561.017C183.202 562.323 183.419 563.308 183.853 563.97C184.292 564.632 185.013 564.963 186.015 564.963ZM194.953 565.016C195.65 565.016 196.263 564.825 196.79 564.444C197.323 564.058 197.666 563.539 197.818 562.889V561.263C197.789 561.263 197.61 561.277 197.282 561.307C196.96 561.336 196.749 561.354 196.649 561.359C195.378 561.471 194.49 561.679 193.986 561.983C193.488 562.288 193.239 562.777 193.239 563.451C193.239 563.967 193.392 564.356 193.696 564.62C194.001 564.884 194.42 565.016 194.953 565.016ZM198.144 566C198.056 565.625 197.971 565.221 197.889 564.787C197.355 565.32 196.854 565.689 196.386 565.895C195.917 566.1 195.366 566.202 194.733 566.202C193.831 566.202 193.104 565.968 192.554 565.499C192.009 565.024 191.736 564.345 191.736 563.46C191.736 562.476 192.108 561.746 192.853 561.271C193.603 560.797 194.681 560.501 196.087 560.384C196.28 560.366 196.57 560.343 196.957 560.313C197.35 560.278 197.643 560.252 197.836 560.234V559.382C197.836 558.702 197.678 558.198 197.361 557.87C197.045 557.542 196.547 557.378 195.867 557.378C194.918 557.378 193.96 557.612 192.993 558.081C192.964 558.011 192.888 557.809 192.765 557.475C192.642 557.135 192.577 556.959 192.571 556.947C192.999 556.707 193.506 556.517 194.092 556.376C194.684 556.229 195.284 556.156 195.894 556.156C197.095 556.156 197.959 556.42 198.486 556.947C199.02 557.469 199.286 558.359 199.286 559.619V566H198.144ZM204.691 566.202C204.035 566.202 203.429 566.132 202.872 565.991C202.321 565.851 201.873 565.669 201.527 565.446L201.712 564.207C202.69 564.729 203.651 564.989 204.595 564.989C206.024 564.989 206.76 564.485 206.801 563.478C206.801 563.05 206.648 562.713 206.344 562.467C206.039 562.221 205.441 561.945 204.551 561.641L203.821 561.386C202.978 561.104 202.374 560.756 202.011 560.34C201.653 559.924 201.472 559.405 201.466 558.784C201.466 558.028 201.768 557.401 202.371 556.903C202.98 556.405 203.812 556.156 204.867 556.156C205.957 556.156 206.95 556.367 207.847 556.789L207.416 557.914C206.508 557.539 205.658 557.352 204.867 557.352C204.252 557.352 203.769 557.475 203.417 557.721C203.071 557.961 202.898 558.301 202.898 558.74C202.898 559.115 203.024 559.402 203.276 559.602C203.528 559.801 204.032 560.029 204.788 560.287C204.981 560.357 205.225 560.439 205.518 560.533C206.49 560.85 207.179 561.225 207.583 561.658C207.987 562.086 208.189 562.666 208.189 563.398C208.178 564.289 207.858 564.98 207.231 565.473C206.604 565.959 205.758 566.202 204.691 566.202ZM213.076 566.202C212.42 566.202 211.813 566.132 211.257 565.991C210.706 565.851 210.258 565.669 209.912 565.446L210.097 564.207C211.075 564.729 212.036 564.989 212.979 564.989C214.409 564.989 215.145 564.485 215.186 563.478C215.186 563.05 215.033 562.713 214.729 562.467C214.424 562.221 213.826 561.945 212.936 561.641L212.206 561.386C211.362 561.104 210.759 560.756 210.396 560.34C210.038 559.924 209.856 559.405 209.851 558.784C209.851 558.028 210.152 557.401 210.756 556.903C211.365 556.405 212.197 556.156 213.252 556.156C214.342 556.156 215.335 556.367 216.231 556.789L215.801 557.914C214.893 557.539 214.043 557.352 213.252 557.352C212.637 557.352 212.153 557.475 211.802 557.721C211.456 557.961 211.283 558.301 211.283 558.74C211.283 559.115 211.409 559.402 211.661 559.602C211.913 559.801 212.417 560.029 213.173 560.287C213.366 560.357 213.609 560.439 213.902 560.533C214.875 560.85 215.563 561.225 215.968 561.658C216.372 562.086 216.574 562.666 216.574 563.398C216.562 564.289 216.243 564.98 215.616 565.473C214.989 565.959 214.143 566.202 213.076 566.202ZM226.91 566C225.557 561.676 224.719 558.983 224.396 557.923C224.215 558.567 224.007 559.265 223.772 560.015C223.538 560.765 223.333 561.409 223.157 561.948C222.981 562.487 222.753 563.185 222.472 564.04C222.19 564.896 221.977 565.549 221.83 566H220.248L217.497 556.358H219.018L221.083 564.251C221.37 563.313 222.214 560.683 223.614 556.358H225.275C226.67 560.776 227.49 563.398 227.736 564.225L229.775 556.358H231.278L228.501 566H226.91ZM233.687 561.201C233.687 562.344 233.938 563.261 234.442 563.952C234.952 564.638 235.693 564.98 236.666 564.98C237.627 564.98 238.351 564.638 238.837 563.952C239.329 563.267 239.575 562.344 239.575 561.184C239.575 560.006 239.332 559.08 238.846 558.406C238.365 557.727 237.63 557.387 236.64 557.387C235.679 557.387 234.946 557.732 234.442 558.424C233.938 559.115 233.687 560.041 233.687 561.201ZM241.096 561.175C241.096 562.669 240.697 563.882 239.9 564.813C239.104 565.739 238.002 566.202 236.596 566.202C235.242 566.202 234.164 565.733 233.361 564.796C232.564 563.858 232.166 562.654 232.166 561.184C232.166 559.684 232.567 558.471 233.37 557.545C234.173 556.619 235.274 556.156 236.675 556.156C238.052 556.156 239.133 556.622 239.918 557.554C240.703 558.479 241.096 559.687 241.096 561.175ZM247.503 556.271C247.767 556.271 248.007 556.288 248.224 556.323L248.171 557.677C247.901 557.63 247.667 557.606 247.468 557.606C246.647 557.606 245.979 557.894 245.464 558.468C244.954 559.036 244.699 559.742 244.699 560.586V566H243.231C243.226 560.082 243.223 556.868 243.223 556.358H244.444L244.585 558.09C244.919 557.545 245.344 557.105 245.859 556.771C246.375 556.438 246.923 556.271 247.503 556.271ZM253.321 564.937C254.288 564.937 255.006 564.626 255.475 564.005C255.949 563.384 256.187 562.496 256.187 561.342C256.187 560.041 255.958 559.062 255.501 558.406C255.05 557.744 254.317 557.413 253.304 557.413C252.853 557.413 252.454 557.51 252.108 557.703C251.763 557.896 251.484 558.166 251.273 558.512C251.062 558.857 250.901 559.256 250.79 559.707C250.685 560.152 250.632 560.642 250.632 561.175C250.632 561.925 250.723 562.575 250.904 563.126C251.092 563.677 251.391 564.116 251.801 564.444C252.211 564.772 252.718 564.937 253.321 564.937ZM256.213 564.603C255.896 565.089 255.475 565.476 254.947 565.763C254.42 566.05 253.831 566.193 253.181 566.193C251.909 566.193 250.913 565.742 250.192 564.84C249.472 563.932 249.111 562.698 249.111 561.14C249.111 559.651 249.478 558.45 250.21 557.536C250.942 556.616 251.924 556.156 253.154 556.156C253.793 556.156 254.394 556.297 254.956 556.578C255.524 556.854 255.949 557.226 256.23 557.694L256.204 556.859V552.614L257.654 552.526V566H256.406L256.213 564.603Z" fill="#BCBCBC"/>
<path d="M59.3887 413V400.124H67.1934L67.0967 402.014H61.7705V405.336H66.833V407.226H61.7705V411.102H67.29L67.2109 413H59.3887ZM69.2939 413V403.341H71.1572L71.4209 404.571C71.5381 404.425 71.6494 404.296 71.7549 404.185C71.8662 404.067 72.0156 403.938 72.2031 403.798C72.3965 403.651 72.5986 403.531 72.8096 403.438C73.0264 403.344 73.29 403.265 73.6006 403.2C73.917 403.136 74.2539 403.104 74.6113 403.104C75.3789 403.104 75.9912 403.259 76.4482 403.569C76.9111 403.88 77.2363 404.243 77.4238 404.659C77.7695 404.161 78.2178 403.777 78.7686 403.508C79.3193 403.238 79.9316 403.104 80.6055 403.104C81.7129 403.104 82.5244 403.417 83.04 404.044C83.5615 404.671 83.8223 405.6 83.8223 406.83V413H81.5107V407.516C81.5107 406.572 81.4053 405.893 81.1943 405.477C80.9893 405.055 80.5938 404.844 80.0078 404.844C79.1113 404.844 78.4668 405.248 78.0742 406.057C77.9102 406.414 77.7988 406.845 77.7402 407.349V413H75.4375V407.41C75.4375 406.549 75.3232 405.907 75.0947 405.485C74.8662 405.063 74.4531 404.853 73.8555 404.853C73.3691 404.853 72.9502 404.976 72.5986 405.222C72.2471 405.468 71.9805 405.79 71.7988 406.188C71.6641 406.78 71.5967 407.489 71.5967 408.315V413H69.2939ZM88.6475 413.185C87.751 413.185 87.0244 412.938 86.4678 412.446C85.917 411.948 85.6416 411.233 85.6416 410.302C85.6416 409.3 85.9697 408.559 86.626 408.078C87.2822 407.592 88.2725 407.284 89.5967 407.155C89.7783 407.132 89.9746 407.108 90.1855 407.085C90.3965 407.062 90.6338 407.038 90.8975 407.015C91.1611 406.991 91.3691 406.971 91.5215 406.953V406.443C91.5215 405.857 91.3867 405.433 91.1172 405.169C90.8477 404.899 90.4375 404.765 89.8867 404.765C89.1016 404.765 88.1318 404.984 86.9775 405.424C86.9717 405.406 86.875 405.14 86.6875 404.624C86.5 404.108 86.4033 403.845 86.3975 403.833C87.5342 403.347 88.7646 403.104 90.0889 403.104C91.3896 403.104 92.3359 403.388 92.9277 403.956C93.5195 404.519 93.8154 405.433 93.8154 406.698V413H92.1104C92.1045 412.977 92.04 412.78 91.917 412.411C91.7939 412.042 91.7324 411.846 91.7324 411.822C91.252 412.291 90.7803 412.637 90.3174 412.859C89.8604 413.076 89.3037 413.185 88.6475 413.185ZM89.2715 411.55C89.8047 411.55 90.2676 411.424 90.6602 411.172C91.0586 410.914 91.3428 410.604 91.5127 410.24V408.377C91.4951 408.377 91.3398 408.389 91.0469 408.412C90.7598 408.436 90.6045 408.447 90.5811 408.447C89.6494 408.529 88.9668 408.705 88.5332 408.975C88.0996 409.244 87.8828 409.678 87.8828 410.275C87.8828 410.686 88.0029 411.002 88.2432 411.225C88.4834 411.441 88.8262 411.55 89.2715 411.55ZM96.1885 413V403.341H98.4912V413H96.1885ZM96.1885 401.935V399.966H98.5V401.935H96.1885ZM104.283 413.132C103.621 413.132 103.07 413.056 102.631 412.903C102.197 412.745 101.854 412.496 101.603 412.156C101.351 411.816 101.175 411.412 101.075 410.943C100.976 410.475 100.926 409.892 100.926 409.194V399.781L103.229 399.632V409.15C103.229 410.018 103.331 410.606 103.536 410.917C103.741 411.222 104.14 411.374 104.731 411.374C105.024 411.374 105.396 411.342 105.848 411.277L105.909 412.921C105.903 412.921 105.83 412.936 105.689 412.965C105.555 412.994 105.423 413.018 105.294 413.035C105.171 413.059 105.013 413.079 104.819 413.097C104.626 413.12 104.447 413.132 104.283 413.132Z" fill="#718CAD"/>
<path d="M61.0498 737H59.5293V724.001H66.7451L66.6836 725.346H61.0498V729.907H66.4199V731.199H61.0498V737ZM69.2939 732.201C69.2939 733.344 69.5459 734.261 70.0498 734.952C70.5596 735.638 71.3008 735.98 72.2734 735.98C73.2344 735.98 73.958 735.638 74.4443 734.952C74.9365 734.267 75.1826 733.344 75.1826 732.184C75.1826 731.006 74.9395 730.08 74.4531 729.406C73.9727 728.727 73.2373 728.387 72.2471 728.387C71.2861 728.387 70.5537 728.732 70.0498 729.424C69.5459 730.115 69.2939 731.041 69.2939 732.201ZM76.7031 732.175C76.7031 733.669 76.3047 734.882 75.5078 735.813C74.7109 736.739 73.6094 737.202 72.2031 737.202C70.8496 737.202 69.7715 736.733 68.9688 735.796C68.1719 734.858 67.7734 733.654 67.7734 732.184C67.7734 730.684 68.1748 729.471 68.9775 728.545C69.7803 727.619 70.8818 727.156 72.2822 727.156C73.6592 727.156 74.7402 727.622 75.5254 728.554C76.3105 729.479 76.7031 730.687 76.7031 732.175ZM83.1104 727.271C83.374 727.271 83.6143 727.288 83.8311 727.323L83.7783 728.677C83.5088 728.63 83.2744 728.606 83.0752 728.606C82.2549 728.606 81.5869 728.894 81.0713 729.468C80.5615 730.036 80.3066 730.742 80.3066 731.586V737H78.8389C78.833 731.082 78.8301 727.868 78.8301 727.358H80.0518L80.1924 729.09C80.5264 728.545 80.9512 728.105 81.4668 727.771C81.9824 727.438 82.5303 727.271 83.1104 727.271ZM88.876 735.743C89.374 735.743 89.8105 735.655 90.1855 735.479C90.5605 735.304 90.8535 735.061 91.0645 734.75C91.2754 734.439 91.4307 734.094 91.5303 733.713C91.6357 733.332 91.6885 732.916 91.6885 732.465V731.753C91.6885 731.284 91.6357 730.854 91.5303 730.461C91.4248 730.062 91.2607 729.708 91.0381 729.397C90.8213 729.081 90.5283 728.835 90.1592 728.659C89.7959 728.483 89.3711 728.396 88.8848 728.396C88.4805 728.396 88.1113 728.472 87.7773 728.624C87.4492 728.776 87.1768 728.979 86.96 729.23C86.749 729.477 86.5674 729.767 86.415 730.101C86.2686 730.429 86.1631 730.763 86.0986 731.103C86.0342 731.442 86.002 731.785 86.002 732.131C86.002 732.471 86.0371 732.808 86.1074 733.142C86.1777 733.476 86.2891 733.801 86.4414 734.117C86.5938 734.434 86.7783 734.712 86.9951 734.952C87.2119 735.187 87.4814 735.377 87.8037 735.523C88.1318 735.67 88.4893 735.743 88.876 735.743ZM86.6172 741.412L86.4854 740.085H88.2783C88.7764 740.085 89.21 740.05 89.5791 739.979C89.9482 739.909 90.2559 739.792 90.502 739.628C90.748 739.47 90.9473 739.291 91.0996 739.092C91.252 738.898 91.3662 738.644 91.4424 738.327C91.5244 738.017 91.5771 737.706 91.6006 737.396C91.6299 737.091 91.6445 736.716 91.6445 736.271V735.418C91.293 735.922 90.8857 736.312 90.4229 736.587C89.96 736.856 89.3711 736.991 88.6562 736.991C88.1055 736.991 87.5957 736.897 87.127 736.71C86.6641 736.517 86.2715 736.262 85.9492 735.945C85.6328 735.629 85.3604 735.263 85.1318 734.847C84.9092 734.431 84.7451 734 84.6396 733.555C84.54 733.109 84.4902 732.661 84.4902 732.21C84.4902 731.507 84.5752 730.856 84.7451 730.259C84.9209 729.661 85.1787 729.128 85.5186 728.659C85.8584 728.19 86.3037 727.824 86.8545 727.561C87.4111 727.291 88.0469 727.156 88.7617 727.156C89.3945 727.156 89.9453 727.279 90.4141 727.525C90.8887 727.766 91.3135 728.138 91.6885 728.642V727.358H93.1211V736.306C93.1211 736.716 93.1094 737.073 93.0859 737.378C93.0684 737.688 93.0186 738.031 92.9365 738.406C92.8604 738.781 92.7549 739.104 92.6201 739.373C92.4854 739.643 92.2949 739.912 92.0488 740.182C91.8086 740.457 91.5186 740.677 91.1787 740.841C90.8447 741.011 90.4287 741.148 89.9307 741.254C89.4326 741.359 88.8701 741.412 88.2432 741.412H86.6172ZM96.6455 732.201C96.6455 733.344 96.8975 734.261 97.4014 734.952C97.9111 735.638 98.6523 735.98 99.625 735.98C100.586 735.98 101.31 735.638 101.796 734.952C102.288 734.267 102.534 733.344 102.534 732.184C102.534 731.006 102.291 730.08 101.805 729.406C101.324 728.727 100.589 728.387 99.5986 728.387C98.6377 728.387 97.9053 728.732 97.4014 729.424C96.8975 730.115 96.6455 731.041 96.6455 732.201ZM104.055 732.175C104.055 733.669 103.656 734.882 102.859 735.813C102.062 736.739 100.961 737.202 99.5547 737.202C98.2012 737.202 97.123 736.733 96.3203 735.796C95.5234 734.858 95.125 733.654 95.125 732.184C95.125 730.684 95.5264 729.471 96.3291 728.545C97.1318 727.619 98.2334 727.156 99.6338 727.156C101.011 727.156 102.092 727.622 102.877 728.554C103.662 729.479 104.055 730.687 104.055 732.175ZM109.214 737.176C108.265 737.176 107.591 736.944 107.192 736.481C106.794 736.019 106.583 735.271 106.56 734.24V728.448H105.127L105.188 727.481L106.551 727.358L107.052 725.152L108.019 725.117V727.358H110.699V728.448H108.019V733.977C108.019 734.709 108.13 735.225 108.353 735.523C108.575 735.822 108.956 735.972 109.495 735.972C109.688 735.972 110.107 735.925 110.752 735.831L110.813 736.991C110.116 737.114 109.583 737.176 109.214 737.176ZM115.647 727.358H117.203L120.244 735.383L122.951 727.358H124.507C121.905 734.519 120.561 738.21 120.473 738.433C120.068 739.446 119.579 740.188 119.005 740.656C118.431 741.131 117.675 741.368 116.737 741.368C116.456 741.368 116.16 741.345 115.85 741.298L115.762 740.05C116.09 740.073 116.336 740.085 116.5 740.085C117.162 740.085 117.663 739.962 118.003 739.716C118.349 739.476 118.656 739.021 118.926 738.354C119.166 737.738 119.345 737.264 119.462 736.93L115.647 727.358ZM126.757 732.201C126.757 733.344 127.009 734.261 127.513 734.952C128.022 735.638 128.764 735.98 129.736 735.98C130.697 735.98 131.421 735.638 131.907 734.952C132.399 734.267 132.646 733.344 132.646 732.184C132.646 731.006 132.402 730.08 131.916 729.406C131.436 728.727 130.7 728.387 129.71 728.387C128.749 728.387 128.017 728.732 127.513 729.424C127.009 730.115 126.757 731.041 126.757 732.201ZM134.166 732.175C134.166 733.669 133.768 734.882 132.971 735.813C132.174 736.739 131.072 737.202 129.666 737.202C128.312 737.202 127.234 736.733 126.432 735.796C125.635 734.858 125.236 733.654 125.236 732.184C125.236 730.684 125.638 729.471 126.44 728.545C127.243 727.619 128.345 727.156 129.745 727.156C131.122 727.156 132.203 727.622 132.988 728.554C133.773 729.479 134.166 730.687 134.166 732.175ZM135.915 733.783V727.358H137.392V733.801C137.392 734.223 137.45 734.58 137.567 734.873C137.69 735.166 137.863 735.395 138.086 735.559C138.314 735.717 138.569 735.831 138.851 735.901C139.138 735.972 139.466 736.007 139.835 736.007C140.597 736.007 141.188 735.84 141.61 735.506C142.038 735.172 142.252 734.604 142.252 733.801V727.358H143.729V733.783C143.729 734.275 143.658 734.718 143.518 735.11C143.377 735.503 143.187 735.831 142.946 736.095C142.712 736.353 142.428 736.566 142.094 736.736C141.76 736.906 141.405 737.029 141.03 737.105C140.661 737.182 140.263 737.22 139.835 737.22C139.413 737.22 139.015 737.182 138.64 737.105C138.265 737.029 137.907 736.906 137.567 736.736C137.233 736.561 136.943 736.344 136.697 736.086C136.457 735.822 136.267 735.494 136.126 735.102C135.985 734.709 135.915 734.27 135.915 733.783ZM150.241 727.271C150.505 727.271 150.745 727.288 150.962 727.323L150.909 728.677C150.64 728.63 150.405 728.606 150.206 728.606C149.386 728.606 148.718 728.894 148.202 729.468C147.692 730.036 147.438 730.742 147.438 731.586V737H145.97C145.964 731.082 145.961 727.868 145.961 727.358H147.183L147.323 729.09C147.657 728.545 148.082 728.105 148.598 727.771C149.113 727.438 149.661 727.271 150.241 727.271ZM156.974 741.184V727.358H158.266L158.406 728.668C159.25 727.66 160.264 727.156 161.447 727.156C162.326 727.156 163.07 727.376 163.68 727.815C164.289 728.255 164.737 728.85 165.024 729.6C165.317 730.35 165.464 731.226 165.464 732.228C165.464 733.188 165.306 734.044 164.989 734.794C164.673 735.538 164.207 736.127 163.592 736.561C162.982 736.988 162.268 737.202 161.447 737.202C160.826 737.202 160.243 737.064 159.698 736.789C159.153 736.508 158.717 736.139 158.389 735.682C158.424 736.314 158.441 736.93 158.441 737.527V741.087L156.974 741.184ZM161.245 735.963C161.69 735.963 162.089 735.863 162.44 735.664C162.792 735.459 163.076 735.181 163.293 734.829C163.51 734.478 163.674 734.079 163.785 733.634C163.896 733.183 163.952 732.696 163.952 732.175C163.952 731.073 163.721 730.171 163.258 729.468C162.795 728.759 162.118 728.404 161.228 728.404C159.364 728.404 158.433 729.608 158.433 732.017C158.433 733.323 158.649 734.308 159.083 734.97C159.522 735.632 160.243 735.963 161.245 735.963ZM170.184 736.016C170.881 736.016 171.493 735.825 172.021 735.444C172.554 735.058 172.896 734.539 173.049 733.889V732.263C173.02 732.263 172.841 732.277 172.513 732.307C172.19 732.336 171.979 732.354 171.88 732.359C170.608 732.471 169.721 732.679 169.217 732.983C168.719 733.288 168.47 733.777 168.47 734.451C168.47 734.967 168.622 735.356 168.927 735.62C169.231 735.884 169.65 736.016 170.184 736.016ZM173.374 737C173.286 736.625 173.201 736.221 173.119 735.787C172.586 736.32 172.085 736.689 171.616 736.895C171.147 737.1 170.597 737.202 169.964 737.202C169.062 737.202 168.335 736.968 167.784 736.499C167.239 736.024 166.967 735.345 166.967 734.46C166.967 733.476 167.339 732.746 168.083 732.271C168.833 731.797 169.911 731.501 171.317 731.384C171.511 731.366 171.801 731.343 172.188 731.313C172.58 731.278 172.873 731.252 173.066 731.234V730.382C173.066 729.702 172.908 729.198 172.592 728.87C172.275 728.542 171.777 728.378 171.098 728.378C170.148 728.378 169.19 728.612 168.224 729.081C168.194 729.011 168.118 728.809 167.995 728.475C167.872 728.135 167.808 727.959 167.802 727.947C168.229 727.707 168.736 727.517 169.322 727.376C169.914 727.229 170.515 727.156 171.124 727.156C172.325 727.156 173.189 727.42 173.717 727.947C174.25 728.469 174.517 729.359 174.517 730.619V737H173.374ZM179.922 737.202C179.266 737.202 178.659 737.132 178.103 736.991C177.552 736.851 177.104 736.669 176.758 736.446L176.942 735.207C177.921 735.729 178.882 735.989 179.825 735.989C181.255 735.989 181.99 735.485 182.031 734.478C182.031 734.05 181.879 733.713 181.574 733.467C181.27 733.221 180.672 732.945 179.781 732.641L179.052 732.386C178.208 732.104 177.604 731.756 177.241 731.34C176.884 730.924 176.702 730.405 176.696 729.784C176.696 729.028 176.998 728.401 177.602 727.903C178.211 727.405 179.043 727.156 180.098 727.156C181.188 727.156 182.181 727.367 183.077 727.789L182.646 728.914C181.738 728.539 180.889 728.352 180.098 728.352C179.482 728.352 178.999 728.475 178.647 728.721C178.302 728.961 178.129 729.301 178.129 729.74C178.129 730.115 178.255 730.402 178.507 730.602C178.759 730.801 179.263 731.029 180.019 731.287C180.212 731.357 180.455 731.439 180.748 731.533C181.721 731.85 182.409 732.225 182.813 732.658C183.218 733.086 183.42 733.666 183.42 734.398C183.408 735.289 183.089 735.98 182.462 736.473C181.835 736.959 180.988 737.202 179.922 737.202ZM188.307 737.202C187.65 737.202 187.044 737.132 186.487 736.991C185.937 736.851 185.488 736.669 185.143 736.446L185.327 735.207C186.306 735.729 187.267 735.989 188.21 735.989C189.64 735.989 190.375 735.485 190.416 734.478C190.416 734.05 190.264 733.713 189.959 733.467C189.654 733.221 189.057 732.945 188.166 732.641L187.437 732.386C186.593 732.104 185.989 731.756 185.626 731.34C185.269 730.924 185.087 730.405 185.081 729.784C185.081 729.028 185.383 728.401 185.986 727.903C186.596 727.405 187.428 727.156 188.482 727.156C189.572 727.156 190.565 727.367 191.462 727.789L191.031 728.914C190.123 728.539 189.273 728.352 188.482 728.352C187.867 728.352 187.384 728.475 187.032 728.721C186.687 728.961 186.514 729.301 186.514 729.74C186.514 730.115 186.64 730.402 186.892 730.602C187.144 730.801 187.647 731.029 188.403 731.287C188.597 731.357 188.84 731.439 189.133 731.533C190.105 731.85 190.794 732.225 191.198 732.658C191.603 733.086 191.805 733.666 191.805 734.398C191.793 735.289 191.474 735.98 190.847 736.473C190.22 736.959 189.373 737.202 188.307 737.202ZM202.141 737C200.787 732.676 199.949 729.983 199.627 728.923C199.445 729.567 199.237 730.265 199.003 731.015C198.769 731.765 198.563 732.409 198.388 732.948C198.212 733.487 197.983 734.185 197.702 735.04C197.421 735.896 197.207 736.549 197.061 737H195.479L192.728 727.358H194.248L196.313 735.251C196.601 734.313 197.444 731.683 198.845 727.358H200.506C201.9 731.776 202.721 734.398 202.967 735.225L205.006 727.358H206.509L203.731 737H202.141ZM208.917 732.201C208.917 733.344 209.169 734.261 209.673 734.952C210.183 735.638 210.924 735.98 211.896 735.98C212.857 735.98 213.581 735.638 214.067 734.952C214.56 734.267 214.806 733.344 214.806 732.184C214.806 731.006 214.562 730.08 214.076 729.406C213.596 728.727 212.86 728.387 211.87 728.387C210.909 728.387 210.177 728.732 209.673 729.424C209.169 730.115 208.917 731.041 208.917 732.201ZM216.326 732.175C216.326 733.669 215.928 734.882 215.131 735.813C214.334 736.739 213.232 737.202 211.826 737.202C210.473 737.202 209.395 736.733 208.592 735.796C207.795 734.858 207.396 733.654 207.396 732.184C207.396 730.684 207.798 729.471 208.601 728.545C209.403 727.619 210.505 727.156 211.905 727.156C213.282 727.156 214.363 727.622 215.148 728.554C215.934 729.479 216.326 730.687 216.326 732.175ZM222.733 727.271C222.997 727.271 223.237 727.288 223.454 727.323L223.401 728.677C223.132 728.63 222.897 728.606 222.698 728.606C221.878 728.606 221.21 728.894 220.694 729.468C220.185 730.036 219.93 730.742 219.93 731.586V737H218.462C218.456 731.082 218.453 727.868 218.453 727.358H219.675L219.815 729.09C220.149 728.545 220.574 728.105 221.09 727.771C221.605 727.438 222.153 727.271 222.733 727.271ZM228.552 735.937C229.519 735.937 230.236 735.626 230.705 735.005C231.18 734.384 231.417 733.496 231.417 732.342C231.417 731.041 231.188 730.062 230.731 729.406C230.28 728.744 229.548 728.413 228.534 728.413C228.083 728.413 227.685 728.51 227.339 728.703C226.993 728.896 226.715 729.166 226.504 729.512C226.293 729.857 226.132 730.256 226.021 730.707C225.915 731.152 225.862 731.642 225.862 732.175C225.862 732.925 225.953 733.575 226.135 734.126C226.322 734.677 226.621 735.116 227.031 735.444C227.441 735.772 227.948 735.937 228.552 735.937ZM231.443 735.603C231.127 736.089 230.705 736.476 230.178 736.763C229.65 737.05 229.062 737.193 228.411 737.193C227.14 737.193 226.144 736.742 225.423 735.84C224.702 734.932 224.342 733.698 224.342 732.14C224.342 730.651 224.708 729.45 225.44 728.536C226.173 727.616 227.154 727.156 228.385 727.156C229.023 727.156 229.624 727.297 230.187 727.578C230.755 727.854 231.18 728.226 231.461 728.694L231.435 727.859V723.614L232.885 723.526V737H231.637L231.443 735.603ZM237.736 733.177H236.972C236.972 732.802 237.057 732.371 237.227 731.885C237.402 731.398 237.613 730.924 237.859 730.461C238.105 729.992 238.349 729.529 238.589 729.072C238.835 728.615 239.043 728.164 239.213 727.719C239.389 727.273 239.477 726.893 239.477 726.576C239.471 726.02 239.292 725.606 238.94 725.337C238.589 725.067 238.108 724.933 237.499 724.933C236.743 724.933 235.984 725.17 235.223 725.645L234.827 724.458C235.548 723.89 236.518 723.605 237.736 723.605C238.686 723.605 239.45 723.857 240.03 724.361C240.616 724.859 240.909 725.557 240.909 726.453C240.909 726.904 240.842 727.344 240.707 727.771C240.578 728.199 240.396 728.618 240.162 729.028C239.928 729.433 239.682 729.828 239.424 730.215C239.172 730.596 238.885 731.056 238.562 731.595C238.246 732.134 237.971 732.661 237.736 733.177ZM236.62 736.763C236.415 736.528 236.312 736.256 236.312 735.945C236.312 735.635 236.415 735.365 236.62 735.137C236.831 734.902 237.118 734.785 237.481 734.785C237.851 734.785 238.138 734.899 238.343 735.128C238.548 735.356 238.65 735.629 238.65 735.945C238.65 736.262 238.548 736.534 238.343 736.763C238.138 736.991 237.851 737.105 237.481 737.105C237.118 737.105 236.831 736.991 236.62 736.763Z" fill="#718CAD"/>
<path d="M258.327 737V724.089H263.1C263.75 724.089 264.312 724.118 264.787 724.177C265.268 724.235 265.722 724.344 266.149 724.502C266.583 724.654 266.932 724.862 267.195 725.126C267.465 725.39 267.676 725.735 267.828 726.163C267.986 726.585 268.065 727.086 268.065 727.666C268.065 729.377 267.289 730.502 265.736 731.041C266.053 731.398 266.445 732.061 266.914 733.027L268.83 737H266.229L264.726 733.634C264.157 732.427 263.806 731.712 263.671 731.489C263.571 731.483 263.24 731.48 262.678 731.48L260.683 731.463V737H258.327ZM263.311 729.758C264.225 729.758 264.881 729.597 265.279 729.274C265.678 728.946 265.877 728.422 265.877 727.701C265.877 727.068 265.675 726.603 265.271 726.304C264.866 726.005 264.248 725.855 263.416 725.855H260.683V729.749C260.771 729.749 261.207 729.752 261.992 729.758C262.777 729.758 263.217 729.758 263.311 729.758ZM274.886 737.185C273.333 737.185 272.123 736.739 271.256 735.849C270.395 734.952 269.964 733.716 269.964 732.14C269.964 730.604 270.371 729.383 271.186 728.475C272 727.566 273.11 727.109 274.517 727.104C275.847 727.104 276.878 727.52 277.61 728.352C278.349 729.184 278.718 730.288 278.718 731.665C278.718 731.765 278.715 731.926 278.709 732.148C278.709 732.371 278.709 732.535 278.709 732.641H272.284C272.308 733.543 272.554 734.243 273.022 734.741C273.497 735.233 274.147 735.479 274.974 735.479C276.028 735.479 277.042 735.204 278.015 734.653L278.34 736.288C277.373 736.886 276.222 737.185 274.886 737.185ZM272.328 731.19H276.547C276.547 730.405 276.368 729.802 276.011 729.38C275.653 728.958 275.158 728.747 274.525 728.747C273.934 728.747 273.433 728.952 273.022 729.362C272.618 729.772 272.387 730.382 272.328 731.19ZM283.684 737.176C282.26 737.176 281.12 736.933 280.265 736.446L280.502 734.715C280.889 734.926 281.381 735.116 281.979 735.286C282.576 735.45 283.121 735.532 283.613 735.532C284.123 735.532 284.519 735.438 284.8 735.251C285.087 735.058 285.233 734.776 285.239 734.407C285.239 734.073 285.104 733.81 284.835 733.616C284.571 733.423 284.064 733.183 283.314 732.896C283.057 732.802 282.89 732.74 282.813 732.711C281.923 732.365 281.281 731.981 280.889 731.56C280.496 731.132 280.3 730.555 280.3 729.828C280.3 728.949 280.616 728.275 281.249 727.807C281.888 727.338 282.775 727.104 283.912 727.104C285.143 727.104 286.224 727.335 287.155 727.798L286.584 729.389C285.664 728.961 284.788 728.747 283.956 728.747C283.493 728.747 283.13 728.826 282.866 728.984C282.608 729.137 282.479 729.371 282.479 729.688C282.479 729.986 282.605 730.221 282.857 730.391C283.109 730.555 283.602 730.771 284.334 731.041C284.357 731.047 284.434 731.073 284.562 731.12C284.691 731.167 284.791 731.205 284.861 731.234C285.746 731.557 286.396 731.943 286.812 732.395C287.229 732.84 287.437 733.423 287.437 734.144C287.431 735.11 287.103 735.857 286.452 736.385C285.802 736.912 284.879 737.176 283.684 737.176ZM293.729 737.185C292.177 737.185 290.967 736.739 290.1 735.849C289.238 734.952 288.808 733.716 288.808 732.14C288.808 730.604 289.215 729.383 290.029 728.475C290.844 727.566 291.954 727.109 293.36 727.104C294.69 727.104 295.722 727.52 296.454 728.352C297.192 729.184 297.562 730.288 297.562 731.665C297.562 731.765 297.559 731.926 297.553 732.148C297.553 732.371 297.553 732.535 297.553 732.641H291.128C291.151 733.543 291.397 734.243 291.866 734.741C292.341 735.233 292.991 735.479 293.817 735.479C294.872 735.479 295.886 735.204 296.858 734.653L297.184 736.288C296.217 736.886 295.065 737.185 293.729 737.185ZM291.172 731.19H295.391C295.391 730.405 295.212 729.802 294.854 729.38C294.497 728.958 294.002 728.747 293.369 728.747C292.777 728.747 292.276 728.952 291.866 729.362C291.462 729.772 291.23 730.382 291.172 731.19ZM303.301 737.132C302.645 737.132 302.097 737.056 301.657 736.903C301.224 736.745 300.884 736.499 300.638 736.165C300.392 735.831 300.216 735.438 300.11 734.987C300.011 734.53 299.961 733.968 299.961 733.3V728.738H298.379L298.467 727.49L300.119 727.341L300.857 724.722L302.264 724.713V727.341H304.663V728.738H302.264V733.344C302.264 734.076 302.369 734.598 302.58 734.908C302.791 735.219 303.181 735.374 303.749 735.374C304.083 735.374 304.44 735.345 304.821 735.286L304.883 736.938C304.871 736.938 304.798 736.953 304.663 736.982C304.534 737.006 304.408 737.026 304.285 737.044C304.168 737.067 304.016 737.088 303.828 737.105C303.641 737.123 303.465 737.132 303.301 737.132ZM311.272 737V727.341H313.136L313.399 728.571C313.517 728.425 313.628 728.296 313.733 728.185C313.845 728.067 313.994 727.938 314.182 727.798C314.375 727.651 314.577 727.531 314.788 727.438C315.005 727.344 315.269 727.265 315.579 727.2C315.896 727.136 316.232 727.104 316.59 727.104C317.357 727.104 317.97 727.259 318.427 727.569C318.89 727.88 319.215 728.243 319.402 728.659C319.748 728.161 320.196 727.777 320.747 727.508C321.298 727.238 321.91 727.104 322.584 727.104C323.691 727.104 324.503 727.417 325.019 728.044C325.54 728.671 325.801 729.6 325.801 730.83V737H323.489V731.516C323.489 730.572 323.384 729.893 323.173 729.477C322.968 729.055 322.572 728.844 321.986 728.844C321.09 728.844 320.445 729.248 320.053 730.057C319.889 730.414 319.777 730.845 319.719 731.349V737H317.416V731.41C317.416 730.549 317.302 729.907 317.073 729.485C316.845 729.063 316.432 728.853 315.834 728.853C315.348 728.853 314.929 728.976 314.577 729.222C314.226 729.468 313.959 729.79 313.777 730.188C313.643 730.78 313.575 731.489 313.575 732.315V737H311.272ZM328.534 741.069C328.159 741.069 327.761 741.046 327.339 740.999L327.225 739.215C327.494 739.244 327.837 739.259 328.253 739.259C328.786 739.259 329.214 739.153 329.536 738.942C329.858 738.731 330.125 738.356 330.336 737.817C330.359 737.759 330.477 737.428 330.688 736.824L326.803 727.341H329.264L331.804 734.346C331.991 733.648 332.41 732.354 333.061 730.461C333.717 728.568 334.077 727.528 334.142 727.341H336.603C333.925 734.419 332.574 737.987 332.551 738.046C332.135 739.13 331.61 739.903 330.978 740.366C330.345 740.835 329.53 741.069 328.534 741.069ZM342.597 741.017V727.341H344.574L344.82 728.694C345.137 728.185 345.556 727.792 346.077 727.517C346.604 727.235 347.19 727.095 347.835 727.095C348.626 727.095 349.32 727.314 349.918 727.754C350.521 728.193 350.979 728.794 351.289 729.556C351.6 730.312 351.755 731.167 351.755 732.122C351.755 733.616 351.392 734.835 350.665 735.778C349.944 736.716 348.966 737.185 347.729 737.185C347.12 737.185 346.566 737.064 346.068 736.824C345.576 736.578 345.163 736.247 344.829 735.831C344.876 736.675 344.899 737.149 344.899 737.255V740.902L342.597 741.017ZM347.237 735.427C347.923 735.427 348.462 735.14 348.854 734.565C349.253 733.991 349.452 733.171 349.452 732.104C349.452 731.021 349.253 730.206 348.854 729.661C348.456 729.116 347.902 728.844 347.193 728.844C345.67 728.844 344.899 729.881 344.882 731.955C344.882 733.15 345.078 734.029 345.471 734.592C345.869 735.148 346.458 735.427 347.237 735.427ZM356.149 737.185C355.253 737.185 354.526 736.938 353.97 736.446C353.419 735.948 353.144 735.233 353.144 734.302C353.144 733.3 353.472 732.559 354.128 732.078C354.784 731.592 355.774 731.284 357.099 731.155C357.28 731.132 357.477 731.108 357.688 731.085C357.898 731.062 358.136 731.038 358.399 731.015C358.663 730.991 358.871 730.971 359.023 730.953V730.443C359.023 729.857 358.889 729.433 358.619 729.169C358.35 728.899 357.939 728.765 357.389 728.765C356.604 728.765 355.634 728.984 354.479 729.424C354.474 729.406 354.377 729.14 354.189 728.624C354.002 728.108 353.905 727.845 353.899 727.833C355.036 727.347 356.267 727.104 357.591 727.104C358.892 727.104 359.838 727.388 360.43 727.956C361.021 728.519 361.317 729.433 361.317 730.698V737H359.612C359.606 736.977 359.542 736.78 359.419 736.411C359.296 736.042 359.234 735.846 359.234 735.822C358.754 736.291 358.282 736.637 357.819 736.859C357.362 737.076 356.806 737.185 356.149 737.185ZM356.773 735.55C357.307 735.55 357.77 735.424 358.162 735.172C358.561 734.914 358.845 734.604 359.015 734.24V732.377C358.997 732.377 358.842 732.389 358.549 732.412C358.262 732.436 358.106 732.447 358.083 732.447C357.151 732.529 356.469 732.705 356.035 732.975C355.602 733.244 355.385 733.678 355.385 734.275C355.385 734.686 355.505 735.002 355.745 735.225C355.985 735.441 356.328 735.55 356.773 735.55ZM366.723 737.176C365.299 737.176 364.159 736.933 363.304 736.446L363.541 734.715C363.928 734.926 364.42 735.116 365.018 735.286C365.615 735.45 366.16 735.532 366.652 735.532C367.162 735.532 367.558 735.438 367.839 735.251C368.126 735.058 368.272 734.776 368.278 734.407C368.278 734.073 368.144 733.81 367.874 733.616C367.61 733.423 367.104 733.183 366.354 732.896C366.096 732.802 365.929 732.74 365.853 732.711C364.962 732.365 364.32 731.981 363.928 731.56C363.535 731.132 363.339 730.555 363.339 729.828C363.339 728.949 363.655 728.275 364.288 727.807C364.927 727.338 365.814 727.104 366.951 727.104C368.182 727.104 369.263 727.335 370.194 727.798L369.623 729.389C368.703 728.961 367.827 728.747 366.995 728.747C366.532 728.747 366.169 728.826 365.905 728.984C365.647 729.137 365.519 729.371 365.519 729.688C365.519 729.986 365.645 730.221 365.896 730.391C366.148 730.555 366.641 730.771 367.373 731.041C367.396 731.047 367.473 731.073 367.602 731.12C367.73 731.167 367.83 731.205 367.9 731.234C368.785 731.557 369.436 731.943 369.852 732.395C370.268 732.84 370.476 733.423 370.476 734.144C370.47 735.11 370.142 735.857 369.491 736.385C368.841 736.912 367.918 737.176 366.723 737.176ZM375.389 737.176C373.965 737.176 372.825 736.933 371.97 736.446L372.207 734.715C372.594 734.926 373.086 735.116 373.684 735.286C374.281 735.45 374.826 735.532 375.318 735.532C375.828 735.532 376.224 735.438 376.505 735.251C376.792 735.058 376.938 734.776 376.944 734.407C376.944 734.073 376.81 733.81 376.54 733.616C376.276 733.423 375.77 733.183 375.02 732.896C374.762 732.802 374.595 732.74 374.519 732.711C373.628 732.365 372.986 731.981 372.594 731.56C372.201 731.132 372.005 730.555 372.005 729.828C372.005 728.949 372.321 728.275 372.954 727.807C373.593 727.338 374.48 727.104 375.617 727.104C376.848 727.104 377.929 727.335 378.86 727.798L378.289 729.389C377.369 728.961 376.493 728.747 375.661 728.747C375.198 728.747 374.835 728.826 374.571 728.984C374.313 729.137 374.185 729.371 374.185 729.688C374.185 729.986 374.311 730.221 374.562 730.391C374.814 730.555 375.307 730.771 376.039 731.041C376.062 731.047 376.139 731.073 376.268 731.12C376.396 731.167 376.496 731.205 376.566 731.234C377.451 731.557 378.102 731.943 378.518 732.395C378.934 732.84 379.142 733.423 379.142 734.144C379.136 735.11 378.808 735.857 378.157 736.385C377.507 736.912 376.584 737.176 375.389 737.176ZM382.842 737L379.915 727.341H382.262L384.116 734.425C384.157 734.29 384.491 733.139 385.118 730.971C385.745 728.803 386.1 727.593 386.182 727.341H388.546C388.622 727.587 388.959 728.785 389.557 730.936C390.154 733.086 390.477 734.24 390.523 734.398L392.431 727.341H394.742L391.719 737H389.425C389.349 736.748 388.991 735.474 388.353 733.177C387.72 730.88 387.377 729.641 387.324 729.459C387.207 729.887 386.832 731.176 386.199 733.326C385.572 735.477 385.209 736.701 385.109 737H382.842ZM400.191 735.436C400.971 735.436 401.557 735.151 401.949 734.583C402.342 734.015 402.538 733.2 402.538 732.14C402.538 731.067 402.342 730.25 401.949 729.688C401.557 729.125 400.965 728.844 400.174 728.844C399.395 728.844 398.806 729.128 398.407 729.696C398.015 730.259 397.818 731.076 397.818 732.148C397.818 733.203 398.018 734.015 398.416 734.583C398.814 735.151 399.406 735.436 400.191 735.436ZM400.13 737.185C398.7 737.185 397.575 736.722 396.755 735.796C395.935 734.87 395.524 733.651 395.524 732.14C395.524 730.581 395.935 729.354 396.755 728.457C397.575 727.555 398.732 727.104 400.227 727.104C401.668 727.104 402.796 727.563 403.61 728.483C404.431 729.397 404.841 730.616 404.841 732.14C404.841 733.681 404.428 734.908 403.602 735.822C402.775 736.73 401.618 737.185 400.13 737.185ZM406.73 737V727.341H408.664L408.963 728.817C409.596 727.804 410.513 727.297 411.714 727.297C411.966 727.297 412.171 727.309 412.329 727.332L412.294 729.257C412.06 729.222 411.816 729.204 411.564 729.204C410.715 729.204 410.079 729.43 409.657 729.881C409.241 730.332 409.033 730.959 409.033 731.762V737H406.73ZM417.242 737.185C415.982 737.185 414.992 736.722 414.271 735.796C413.551 734.87 413.19 733.634 413.19 732.087C413.19 730.587 413.548 729.383 414.263 728.475C414.983 727.561 415.974 727.104 417.233 727.104C418.604 727.104 419.574 727.59 420.143 728.562C420.084 727.988 420.055 727.435 420.055 726.901V723.781L422.357 723.632V737H420.362L420.107 735.682C420.008 735.84 419.914 735.978 419.826 736.095C419.744 736.206 419.621 736.338 419.457 736.49C419.293 736.637 419.114 736.757 418.921 736.851C418.733 736.938 418.493 737.015 418.2 737.079C417.913 737.149 417.594 737.185 417.242 737.185ZM417.787 735.436C419.334 735.436 420.119 734.384 420.143 732.28C420.143 731.091 419.943 730.224 419.545 729.679C419.146 729.134 418.552 728.861 417.761 728.861C417.069 728.861 416.516 729.14 416.1 729.696C415.689 730.247 415.484 731.062 415.484 732.14C415.484 733.212 415.689 734.029 416.1 734.592C416.516 735.154 417.078 735.436 417.787 735.436Z" fill="white"/>
<path d="M59.3271 520V507.089H63.6162C64.6299 507.089 65.4971 507.221 66.2178 507.484C66.9385 507.742 67.5068 508.164 67.9229 508.75C68.3447 509.336 68.5557 510.071 68.5557 510.956C68.5557 511.571 68.4766 512.119 68.3184 512.6C68.1602 513.074 67.8994 513.508 67.5361 513.9C67.1729 514.287 66.6602 514.586 65.998 514.797C65.3418 515.008 64.5479 515.113 63.6162 515.113C62.8193 515.113 62.1719 515.09 61.6738 515.043V520H59.3271ZM63.3613 513.391C63.8477 513.391 64.2695 513.344 64.627 513.25C64.9902 513.156 65.2715 513.036 65.4707 512.89C65.6758 512.743 65.8369 512.562 65.9541 512.345C66.0771 512.128 66.1562 511.92 66.1914 511.721C66.2324 511.516 66.2529 511.287 66.2529 511.035C66.2529 510.326 66.0244 509.787 65.5674 509.418C65.1104 509.049 64.4658 508.864 63.6338 508.864H61.6738V513.373C61.7441 513.385 62.3066 513.391 63.3613 513.391ZM72.4756 520.185C71.5791 520.185 70.8525 519.938 70.2959 519.446C69.7451 518.948 69.4697 518.233 69.4697 517.302C69.4697 516.3 69.7979 515.559 70.4541 515.078C71.1104 514.592 72.1006 514.284 73.4248 514.155C73.6064 514.132 73.8027 514.108 74.0137 514.085C74.2246 514.062 74.4619 514.038 74.7256 514.015C74.9893 513.991 75.1973 513.971 75.3496 513.953V513.443C75.3496 512.857 75.2148 512.433 74.9453 512.169C74.6758 511.899 74.2656 511.765 73.7148 511.765C72.9297 511.765 71.96 511.984 70.8057 512.424C70.7998 512.406 70.7031 512.14 70.5156 511.624C70.3281 511.108 70.2314 510.845 70.2256 510.833C71.3623 510.347 72.5928 510.104 73.917 510.104C75.2178 510.104 76.1641 510.388 76.7559 510.956C77.3477 511.519 77.6436 512.433 77.6436 513.698V520H75.9385C75.9326 519.977 75.8682 519.78 75.7451 519.411C75.6221 519.042 75.5605 518.846 75.5605 518.822C75.0801 519.291 74.6084 519.637 74.1455 519.859C73.6885 520.076 73.1318 520.185 72.4756 520.185ZM73.0996 518.55C73.6328 518.55 74.0957 518.424 74.4883 518.172C74.8867 517.914 75.1709 517.604 75.3408 517.24V515.377C75.3232 515.377 75.168 515.389 74.875 515.412C74.5879 515.436 74.4326 515.447 74.4092 515.447C73.4775 515.529 72.7949 515.705 72.3613 515.975C71.9277 516.244 71.7109 516.678 71.7109 517.275C71.7109 517.686 71.8311 518.002 72.0713 518.225C72.3115 518.441 72.6543 518.55 73.0996 518.55ZM83.0488 520.176C81.625 520.176 80.4854 519.933 79.6299 519.446L79.8672 517.715C80.2539 517.926 80.7461 518.116 81.3438 518.286C81.9414 518.45 82.4863 518.532 82.9785 518.532C83.4883 518.532 83.8838 518.438 84.165 518.251C84.4521 518.058 84.5986 517.776 84.6045 517.407C84.6045 517.073 84.4697 516.81 84.2002 516.616C83.9365 516.423 83.4297 516.183 82.6797 515.896C82.4219 515.802 82.2549 515.74 82.1787 515.711C81.2881 515.365 80.6465 514.981 80.2539 514.56C79.8613 514.132 79.665 513.555 79.665 512.828C79.665 511.949 79.9814 511.275 80.6143 510.807C81.2529 510.338 82.1406 510.104 83.2773 510.104C84.5078 510.104 85.5889 510.335 86.5205 510.798L85.9492 512.389C85.0293 511.961 84.1533 511.747 83.3213 511.747C82.8584 511.747 82.4951 511.826 82.2314 511.984C81.9736 512.137 81.8447 512.371 81.8447 512.688C81.8447 512.986 81.9707 513.221 82.2227 513.391C82.4746 513.555 82.9668 513.771 83.6992 514.041C83.7227 514.047 83.7988 514.073 83.9277 514.12C84.0566 514.167 84.1562 514.205 84.2266 514.234C85.1113 514.557 85.7617 514.943 86.1777 515.395C86.5938 515.84 86.8018 516.423 86.8018 517.144C86.7959 518.11 86.4678 518.857 85.8174 519.385C85.167 519.912 84.2441 520.176 83.0488 520.176ZM91.7148 520.176C90.291 520.176 89.1514 519.933 88.2959 519.446L88.5332 517.715C88.9199 517.926 89.4121 518.116 90.0098 518.286C90.6074 518.45 91.1523 518.532 91.6445 518.532C92.1543 518.532 92.5498 518.438 92.8311 518.251C93.1182 518.058 93.2646 517.776 93.2705 517.407C93.2705 517.073 93.1357 516.81 92.8662 516.616C92.6025 516.423 92.0957 516.183 91.3457 515.896C91.0879 515.802 90.9209 515.74 90.8447 515.711C89.9541 515.365 89.3125 514.981 88.9199 514.56C88.5273 514.132 88.3311 513.555 88.3311 512.828C88.3311 511.949 88.6475 511.275 89.2803 510.807C89.9189 510.338 90.8066 510.104 91.9434 510.104C93.1738 510.104 94.2549 510.335 95.1865 510.798L94.6152 512.389C93.6953 511.961 92.8193 511.747 91.9873 511.747C91.5244 511.747 91.1611 511.826 90.8975 511.984C90.6396 512.137 90.5107 512.371 90.5107 512.688C90.5107 512.986 90.6367 513.221 90.8887 513.391C91.1406 513.555 91.6328 513.771 92.3652 514.041C92.3887 514.047 92.4648 514.073 92.5938 514.12C92.7227 514.167 92.8223 514.205 92.8926 514.234C93.7773 514.557 94.4277 514.943 94.8438 515.395C95.2598 515.84 95.4678 516.423 95.4678 517.144C95.4619 518.11 95.1338 518.857 94.4834 519.385C93.833 519.912 92.9102 520.176 91.7148 520.176ZM99.168 520L96.2412 510.341H98.5879L100.442 517.425C100.483 517.29 100.817 516.139 101.444 513.971C102.071 511.803 102.426 510.593 102.508 510.341H104.872C104.948 510.587 105.285 511.785 105.883 513.936C106.48 516.086 106.803 517.24 106.85 517.398L108.757 510.341H111.068L108.045 520H105.751C105.675 519.748 105.317 518.474 104.679 516.177C104.046 513.88 103.703 512.641 103.65 512.459C103.533 512.887 103.158 514.176 102.525 516.326C101.898 518.477 101.535 519.701 101.436 520H99.168ZM116.518 518.436C117.297 518.436 117.883 518.151 118.275 517.583C118.668 517.015 118.864 516.2 118.864 515.14C118.864 514.067 118.668 513.25 118.275 512.688C117.883 512.125 117.291 511.844 116.5 511.844C115.721 511.844 115.132 512.128 114.733 512.696C114.341 513.259 114.145 514.076 114.145 515.148C114.145 516.203 114.344 517.015 114.742 517.583C115.141 518.151 115.732 518.436 116.518 518.436ZM116.456 520.185C115.026 520.185 113.901 519.722 113.081 518.796C112.261 517.87 111.851 516.651 111.851 515.14C111.851 513.581 112.261 512.354 113.081 511.457C113.901 510.555 115.059 510.104 116.553 510.104C117.994 510.104 119.122 510.563 119.937 511.483C120.757 512.397 121.167 513.616 121.167 515.14C121.167 516.681 120.754 517.908 119.928 518.822C119.102 519.73 117.944 520.185 116.456 520.185ZM123.057 520V510.341H124.99L125.289 511.817C125.922 510.804 126.839 510.297 128.04 510.297C128.292 510.297 128.497 510.309 128.655 510.332L128.62 512.257C128.386 512.222 128.143 512.204 127.891 512.204C127.041 512.204 126.405 512.43 125.983 512.881C125.567 513.332 125.359 513.959 125.359 514.762V520H123.057ZM133.568 520.185C132.309 520.185 131.318 519.722 130.598 518.796C129.877 517.87 129.517 516.634 129.517 515.087C129.517 513.587 129.874 512.383 130.589 511.475C131.31 510.561 132.3 510.104 133.56 510.104C134.931 510.104 135.9 510.59 136.469 511.562C136.41 510.988 136.381 510.435 136.381 509.901V506.781L138.684 506.632V520H136.688L136.434 518.682C136.334 518.84 136.24 518.978 136.152 519.095C136.07 519.206 135.947 519.338 135.783 519.49C135.619 519.637 135.44 519.757 135.247 519.851C135.06 519.938 134.819 520.015 134.526 520.079C134.239 520.149 133.92 520.185 133.568 520.185ZM134.113 518.436C135.66 518.436 136.445 517.384 136.469 515.28C136.469 514.091 136.27 513.224 135.871 512.679C135.473 512.134 134.878 511.861 134.087 511.861C133.396 511.861 132.842 512.14 132.426 512.696C132.016 513.247 131.811 514.062 131.811 515.14C131.811 516.212 132.016 517.029 132.426 517.592C132.842 518.154 133.404 518.436 134.113 518.436Z" fill="#718CAD"/>
<line x1="257" y1="743" x2="428" y2="743" stroke="#0066FF" stroke-width="2"/>
<rect x="58" y="252" width="465" height="100" rx="5" fill="#32465E"/>
<path d="M150.668 311.234C148.598 311.234 146.742 310.758 145.102 309.805L145.875 307.285C146.609 307.691 147.406 308.02 148.266 308.27C149.133 308.52 149.977 308.645 150.797 308.645C151.805 308.645 152.566 308.43 153.082 308C153.598 307.562 153.855 306.938 153.855 306.125C153.855 305.047 153.137 304.301 151.699 303.887C151.598 303.855 151.312 303.773 150.844 303.641C150.375 303.5 149.934 303.367 149.52 303.242C149.113 303.109 148.82 303.008 148.641 302.938C146.336 302.125 145.184 300.609 145.184 298.391C145.184 296.836 145.734 295.637 146.836 294.793C147.945 293.949 149.414 293.527 151.242 293.527C153.312 293.527 155.098 293.953 156.598 294.805L155.637 297.125C154.105 296.438 152.684 296.094 151.371 296.094C150.426 296.094 149.711 296.262 149.227 296.598C148.75 296.926 148.496 297.477 148.465 298.25C148.465 299.203 148.938 299.824 149.883 300.113C150.07 300.184 150.531 300.336 151.266 300.57C152 300.805 152.477 300.957 152.695 301.027C154.266 301.543 155.387 302.184 156.059 302.949C156.738 303.715 157.078 304.781 157.078 306.148C157.078 307.781 156.5 309.039 155.344 309.922C154.188 310.797 152.629 311.234 150.668 311.234ZM159.574 311V298.121H162.645V311H159.574ZM159.574 296.246V293.621H162.656V296.246H159.574ZM168.434 316.766L168.258 314.281H169.816C171.621 314.281 172.883 314.039 173.602 313.555C174.32 313.078 174.68 312.199 174.68 310.918C174.68 310.395 174.656 309.828 174.609 309.219C174.406 309.5 174.211 309.734 174.023 309.922C173.844 310.102 173.613 310.281 173.332 310.461C173.059 310.641 172.727 310.777 172.336 310.871C171.953 310.957 171.516 311 171.023 311C169.32 311 167.918 310.387 166.816 309.16C165.723 307.934 165.176 306.352 165.176 304.414C165.176 303.383 165.328 302.445 165.633 301.602C165.938 300.75 166.352 300.051 166.875 299.504C167.398 298.957 168 298.539 168.68 298.25C169.367 297.953 170.098 297.805 170.871 297.805C172.598 297.805 173.883 298.434 174.727 299.691L174.938 298.121H177.68V310.086C177.68 310.727 177.648 311.301 177.586 311.809C177.523 312.324 177.414 312.816 177.258 313.285C177.102 313.762 176.895 314.176 176.637 314.527C176.387 314.879 176.07 315.199 175.688 315.488C175.305 315.777 174.852 316.012 174.328 316.191C173.812 316.379 173.211 316.52 172.523 316.613C171.836 316.715 171.062 316.766 170.203 316.766H168.434ZM171.516 308.855C173.633 308.855 174.703 307.438 174.727 304.602V304.156C174.711 302.883 174.445 301.898 173.93 301.203C173.414 300.508 172.66 300.156 171.668 300.148C170.543 300.148 169.691 300.535 169.113 301.309C168.535 302.074 168.246 303.109 168.246 304.414C168.246 305.672 168.535 306.727 169.113 307.578C169.699 308.43 170.5 308.855 171.516 308.855ZM180.715 311V298.121H183.188L183.527 299.75C184.84 298.453 186.297 297.805 187.898 297.805C189.398 297.805 190.52 298.238 191.262 299.105C192.012 299.965 192.387 301.215 192.387 302.855V311H189.305V303.23C189.297 302.191 189.129 301.414 188.801 300.898C188.473 300.383 187.883 300.125 187.031 300.125C186.367 300.125 185.758 300.297 185.203 300.641C184.656 300.977 184.258 301.402 184.008 301.918C183.859 302.527 183.785 303.465 183.785 304.73V311H180.715ZM201.832 311V298.121H204.902V311H201.832ZM201.832 296.246V293.621H204.914V296.246H201.832ZM208.113 311V298.121H210.586L210.926 299.75C212.238 298.453 213.695 297.805 215.297 297.805C216.797 297.805 217.918 298.238 218.66 299.105C219.41 299.965 219.785 301.215 219.785 302.855V311H216.703V303.23C216.695 302.191 216.527 301.414 216.199 300.898C215.871 300.383 215.281 300.125 214.43 300.125C213.766 300.125 213.156 300.297 212.602 300.641C212.055 300.977 211.656 301.402 211.406 301.918C211.258 302.527 211.184 303.465 211.184 304.73V311H208.113ZM234.305 311.176C233.43 311.176 232.699 311.074 232.113 310.871C231.535 310.66 231.082 310.332 230.754 309.887C230.426 309.441 230.191 308.918 230.051 308.316C229.918 307.707 229.852 306.957 229.852 306.066V299.984H227.742L227.859 298.32L230.062 298.121L231.047 294.629L232.922 294.617V298.121H236.121V299.984H232.922V306.125C232.922 307.102 233.062 307.797 233.344 308.211C233.625 308.625 234.145 308.832 234.902 308.832C235.348 308.832 235.824 308.793 236.332 308.715L236.414 310.918C236.398 310.918 236.301 310.938 236.121 310.977C235.949 311.008 235.781 311.035 235.617 311.059C235.461 311.09 235.258 311.117 235.008 311.141C234.758 311.164 234.523 311.176 234.305 311.176ZM244.078 308.914C245.117 308.914 245.898 308.535 246.422 307.777C246.945 307.02 247.207 305.934 247.207 304.52C247.207 303.09 246.945 302 246.422 301.25C245.898 300.5 245.109 300.125 244.055 300.125C243.016 300.125 242.23 300.504 241.699 301.262C241.176 302.012 240.914 303.102 240.914 304.531C240.914 305.938 241.18 307.02 241.711 307.777C242.242 308.535 243.031 308.914 244.078 308.914ZM243.996 311.246C242.09 311.246 240.59 310.629 239.496 309.395C238.402 308.16 237.855 306.535 237.855 304.52C237.855 302.441 238.402 300.805 239.496 299.609C240.59 298.406 242.133 297.805 244.125 297.805C246.047 297.805 247.551 298.418 248.637 299.645C249.73 300.863 250.277 302.488 250.277 304.52C250.277 306.574 249.727 308.211 248.625 309.43C247.523 310.641 245.98 311.246 243.996 311.246ZM259.43 311V293.832H263.18L268.371 306.23L273.598 293.832H277.301V311H274.371V302.516L274.465 297.652L274.031 298.941L269.637 309.828H266.918L262.617 298.883L262.184 297.594L262.289 302.562V311H259.43ZM286.336 308.914C287.375 308.914 288.156 308.535 288.68 307.777C289.203 307.02 289.465 305.934 289.465 304.52C289.465 303.09 289.203 302 288.68 301.25C288.156 300.5 287.367 300.125 286.312 300.125C285.273 300.125 284.488 300.504 283.957 301.262C283.434 302.012 283.172 303.102 283.172 304.531C283.172 305.938 283.438 307.02 283.969 307.777C284.5 308.535 285.289 308.914 286.336 308.914ZM286.254 311.246C284.348 311.246 282.848 310.629 281.754 309.395C280.66 308.16 280.113 306.535 280.113 304.52C280.113 302.441 280.66 300.805 281.754 299.609C282.848 298.406 284.391 297.805 286.383 297.805C288.305 297.805 289.809 298.418 290.895 299.645C291.988 300.863 292.535 302.488 292.535 304.52C292.535 306.574 291.984 308.211 290.883 309.43C289.781 310.641 288.238 311.246 286.254 311.246ZM295.055 311V298.121H297.633L298.031 300.09C298.875 298.738 300.098 298.062 301.699 298.062C302.035 298.062 302.309 298.078 302.52 298.109L302.473 300.676C302.16 300.629 301.836 300.605 301.5 300.605C300.367 300.605 299.52 300.906 298.957 301.508C298.402 302.109 298.125 302.945 298.125 304.016V311H295.055ZM310.23 311.246C308.16 311.246 306.547 310.652 305.391 309.465C304.242 308.27 303.668 306.621 303.668 304.52C303.668 302.473 304.211 300.844 305.297 299.633C306.383 298.422 307.863 297.812 309.738 297.805C311.512 297.805 312.887 298.359 313.863 299.469C314.848 300.578 315.34 302.051 315.34 303.887C315.34 304.02 315.336 304.234 315.328 304.531C315.328 304.828 315.328 305.047 315.328 305.188H306.762C306.793 306.391 307.121 307.324 307.746 307.988C308.379 308.645 309.246 308.973 310.348 308.973C311.754 308.973 313.105 308.605 314.402 307.871L314.836 310.051C313.547 310.848 312.012 311.246 310.23 311.246ZM306.82 303.254H312.445C312.445 302.207 312.207 301.402 311.73 300.84C311.254 300.277 310.594 299.996 309.75 299.996C308.961 299.996 308.293 300.27 307.746 300.816C307.207 301.363 306.898 302.176 306.82 303.254ZM322.359 311.176C321.477 311.176 320.742 311.074 320.156 310.871C319.578 310.66 319.121 310.328 318.785 309.875C318.449 309.422 318.215 308.883 318.082 308.258C317.949 307.633 317.883 306.855 317.883 305.926V293.375L320.953 293.176V305.867C320.953 307.023 321.09 307.809 321.363 308.223C321.637 308.629 322.168 308.832 322.957 308.832C323.348 308.832 323.844 308.789 324.445 308.703L324.527 310.895C324.52 310.895 324.422 310.914 324.234 310.953C324.055 310.992 323.879 311.023 323.707 311.047C323.543 311.078 323.332 311.105 323.074 311.129C322.816 311.16 322.578 311.176 322.359 311.176ZM336.012 311V296.375H331.008V293.832H344.18V296.375H339.199V311H336.012ZM345.914 311V298.121H348.492L348.891 300.09C349.734 298.738 350.957 298.062 352.559 298.062C352.895 298.062 353.168 298.078 353.379 298.109L353.332 300.676C353.02 300.629 352.695 300.605 352.359 300.605C351.227 300.605 350.379 300.906 349.816 301.508C349.262 302.109 348.984 302.945 348.984 304.016V311H345.914ZM358.559 311.246C357.363 311.246 356.395 310.918 355.652 310.262C354.918 309.598 354.551 308.645 354.551 307.402C354.551 306.066 354.988 305.078 355.863 304.438C356.738 303.789 358.059 303.379 359.824 303.207C360.066 303.176 360.328 303.145 360.609 303.113C360.891 303.082 361.207 303.051 361.559 303.02C361.91 302.988 362.188 302.961 362.391 302.938V302.258C362.391 301.477 362.211 300.91 361.852 300.559C361.492 300.199 360.945 300.02 360.211 300.02C359.164 300.02 357.871 300.312 356.332 300.898C356.324 300.875 356.195 300.52 355.945 299.832C355.695 299.145 355.566 298.793 355.559 298.777C357.074 298.129 358.715 297.805 360.48 297.805C362.215 297.805 363.477 298.184 364.266 298.941C365.055 299.691 365.449 300.91 365.449 302.598V311H363.176C363.168 310.969 363.082 310.707 362.918 310.215C362.754 309.723 362.672 309.461 362.672 309.43C362.031 310.055 361.402 310.516 360.785 310.812C360.176 311.102 359.434 311.246 358.559 311.246ZM359.391 309.066C360.102 309.066 360.719 308.898 361.242 308.562C361.773 308.219 362.152 307.805 362.379 307.32V304.836C362.355 304.836 362.148 304.852 361.758 304.883C361.375 304.914 361.168 304.93 361.137 304.93C359.895 305.039 358.984 305.273 358.406 305.633C357.828 305.992 357.539 306.57 357.539 307.367C357.539 307.914 357.699 308.336 358.02 308.633C358.34 308.922 358.797 309.066 359.391 309.066ZM374.18 311.246C372.211 311.246 370.676 310.66 369.574 309.488C368.48 308.316 367.934 306.641 367.934 304.461C367.934 302.352 368.508 300.715 369.656 299.551C370.812 298.387 372.332 297.805 374.215 297.805C375.723 297.805 376.996 298.129 378.035 298.777L377.309 300.969C376.246 300.414 375.258 300.137 374.344 300.137C373.305 300.137 372.484 300.508 371.883 301.25C371.289 301.992 370.992 303.074 370.992 304.496C370.992 305.934 371.285 307.027 371.871 307.777C372.465 308.527 373.301 308.902 374.379 308.902C375.504 308.902 376.586 308.57 377.625 307.906L377.918 310.238C377.379 310.598 376.82 310.855 376.242 311.012C375.664 311.168 374.977 311.246 374.18 311.246ZM380.355 311V293.375L383.426 293.176V301.086L383.355 303.688C383.363 303.68 383.441 303.602 383.59 303.453C383.746 303.305 383.832 303.223 383.848 303.207C384.277 302.699 384.742 302.176 385.242 301.637C385.75 301.098 386.387 300.438 387.152 299.656C387.926 298.875 388.43 298.363 388.664 298.121H392.32L387.023 303.605L392.66 311H388.945L384.703 305.152L383.426 306.16V311H380.355ZM399.621 311.246C397.551 311.246 395.938 310.652 394.781 309.465C393.633 308.27 393.059 306.621 393.059 304.52C393.059 302.473 393.602 300.844 394.688 299.633C395.773 298.422 397.254 297.812 399.129 297.805C400.902 297.805 402.277 298.359 403.254 299.469C404.238 300.578 404.73 302.051 404.73 303.887C404.73 304.02 404.727 304.234 404.719 304.531C404.719 304.828 404.719 305.047 404.719 305.188H396.152C396.184 306.391 396.512 307.324 397.137 307.988C397.77 308.645 398.637 308.973 399.738 308.973C401.145 308.973 402.496 308.605 403.793 307.871L404.227 310.051C402.938 310.848 401.402 311.246 399.621 311.246ZM396.211 303.254H401.836C401.836 302.207 401.598 301.402 401.121 300.84C400.645 300.277 399.984 299.996 399.141 299.996C398.352 299.996 397.684 300.27 397.137 300.816C396.598 301.363 396.289 302.176 396.211 303.254ZM407.25 311V298.121H409.828L410.227 300.09C411.07 298.738 412.293 298.062 413.895 298.062C414.23 298.062 414.504 298.078 414.715 298.109L414.668 300.676C414.355 300.629 414.031 300.605 413.695 300.605C412.562 300.605 411.715 300.906 411.152 301.508C410.598 302.109 410.32 302.945 410.32 304.016V311H407.25Z" fill="white"/>
</svg>
